<!-- Copyright © 2015 MODULUS Sp. z o. o. / FUTURAMO™ --><svg xmlns="http://www.w3.org/2000/svg" x="0px" y="0px" width="64px" height="64px" viewBox="0 0 32 32"><path fill="#35393E" d="M11.826,10.435l3.826,3.826l-1.391,1.391l-3.826-3.826L0,22.261L9.739,32l10.435-10.435l-3.826-3.826 l1.391-1.391l3.826,3.826L32,9.739L22.261,0L11.826,10.435z M15.931,21.565l-6.192,6.192l-5.496-5.496l6.192-6.192l1.705,1.705 l-2.748,2.748l2.087,2.087l2.748-2.748L15.931,21.565z M21.565,15.931l-1.705-1.705l2.748-2.748l-2.087-2.087l-2.748,2.748 l-1.705-1.705l6.192-6.192l5.497,5.497L21.565,15.931z"></path></svg>