<!DOCTYPE svg PUBLIC "-//W3C//DTD SVG 1.0//EN" "http://www.w3.org/TR/2001/REC-SVG-20010904/DTD/svg10.dtd" [
<!ENTITY ns_flows "http://ns.adobe.com/Flows/1.0/">
<!ENTITY ns_extend "http://ns.adobe.com/Extensibility/1.0/">
<!ENTITY ns_ai "http://ns.adobe.com/AdobeIllustrator/10.0/">
<!ENTITY ns_graphs "http://ns.adobe.com/Graphs/1.0/">
<!ENTITY ns_vars "http://ns.adobe.com/Variables/1.0/">
<!ENTITY ns_imrep "http://ns.adobe.com/ImageReplacement/1.0/">
<!ENTITY ns_sfw "http://ns.adobe.com/SaveForWeb/1.0/">
<!ENTITY ns_custom "http://ns.adobe.com/GenericCustomNamespace/1.0/">
<!ENTITY ns_adobe_xpath "http://ns.adobe.com/XPath/1.0/">
<!ENTITY ns_svg "http://www.w3.org/2000/svg">
<!ENTITY ns_xlink "http://www.w3.org/1999/xlink">
]>
<svg viewBox="0 0 330.635 373.146" xmlns="http://www.w3.org/2000/svg">
  <g opacity=".43">
    <path d="M326.41 92.628c-17.74-23.697-41.072-41.86-68.288-54.352-31.33-14.538-65.33-17.316-100.022-11.595C93.812 38.55 42.41 91.67 40.002 157.79c-.705 24.328 5.21 46.203 17.602 67.323 12.853 20.73 31.75 35.538 54.604 43.822 21.224 7.295 42.75 5.632 63.204-3.82 15.145-7.32 27.305-20.017 31.244-36.81 1.476-7.58 3.297-19.41-6.305-22.333-7.6 4.084-12.94 11.778-19.76 16.782-17.26 12.28-39.5 12.175-57.43 1.297-18.32-11.33-27.91-30.09-29.58-51.61-2.58-36.57 20-66.82 52.38-80.85 41.23-17.59 89.51-6.38 120.3 25.23 19.72 20.44 32.23 45.42 36.21 75.27 5.31 39.8-5.33 75.72-30.53 106.61-12.9 16.49-26.83 29.9-45.65 40.34-19.74 11.22-39.46 16.89-61.97 20.18-39.8 5.31-77.63-2.92-111.09-22.77 8.75 2.86 16.05 7.73 24.35 10.98 14.95 5.5 29.2 9.23 45.28 11.4 15.3 1.25 29.43 1.13 45.01-1.02 43.73-6.27 79.67-27.29 106.07-62.35 15.87-21.38 24.61-44.62 27.61-70.9 4.19-40.73-8.38-80.69-38.59-108.83-29.04-26.76-70.46-38.27-107.87-25.5-23.32 7.93-42.17 23.93-52.54 46.19-5.75 12.79-7.71 26.32-5.88 40.59 2.4 17.74 10.96 33.41 26.42 43.23 11.8 7.38 26.11 10.26 39.67 6.67 7.01-1.99 13.3-5.76 18.43-10.9 5.59-5.53 8.3-12.58 11.87-19.56 1.98-3.26 4.03-7.37 8.21-6.18 9.93 4.24 12.36 16.41 11.98 26.22-.95 22.17-15.23 39.83-34.9 50.2-26.29 12.83-56.11 11.25-81.55-1.95-42.21-22.7-63.9-71.53-57-119.32 6.96-48.64 37.95-87.6 82.4-107.93 37.37-17.48 78.19-19.71 118.62-6.57 35 11.41 66.3 31.51 85.65 61.75z" fill="#999"/>
    <path d="M330.635 98.536C305.293 63.096 268.85 37.87 224.747 27.85c-33.192-7.42-65.52-4.5-96.058 7.98-22.16 9.314-40.8 22.765-56.91 41.984-17.18 21.7-28.08 45.194-30.77 72.786-1.95 23.796 2.2 46.382 13.28 67.824 9.59 18.752 24.31 32.362 41.85 42.78 22.11 12.076 48.78 15.537 72.71 5.512 10.61-4.266 19.67-10.372 26.84-19.625 4.87-7.3 8.51-15.13 9.66-24.02.27-3.4-.76-6.48-2.25-9.17-1.56-1.84-4.5-2.5-6.8-.55-8.67 6.57-16.48 13.2-26.64 17.08-16.71 5.48-34.49 3.17-49.48-7.04-27.12-18.9-33.63-54.51-21.78-84.35 12.84-31.46 40.99-51.41 75.16-55.89 25.46-2.62 48.59 2.26 69.79 15.12 28.5 17.73 48.9 45.5 56.92 78.24 4.1 17.88 5.65 35.55 2.42 54.11-5.09 25.68-13.83 48.93-30.94 69.78-13.75 16.42-28.07 29.37-47.74 39.74-26.43 14.53-53.55 21.72-83.43 20.99-32.44-.94-62.62-8.54-89.49-25.28 21.72 11.62 44.19 19.44 69.09 23.61 15.23 2.11 29.43 1.13 45.39-.56 37.17-4.66 68.45-20.93 94.01-45.8 23.26-22.91 37.66-52.54 42.92-85.48 4.2-30.46-1.62-58.74-17-85.24-10.83-19.28-26.33-33.81-45.12-44.75-17.22-9.11-35.65-14.04-56.19-14-18.38-.22-34.69 5.72-49.58 15.2-29.26 17.72-46.09 51-38.99 84.52 3.71 17.42 14.11 31.53 29.17 40.89 11.87 6.53 25.79 8.95 38.89 5.74 12.71-3.67 22.36-11.86 30.52-22.75 2.36-2.8 5.19-5.99 8.45-4.01 3.72 1.59 5.53 5.59 6.04 9.91 2.23 25-15.19 44.54-36.49 53.92-24.85 10.8-53.75 8.44-77.03-5.01-10.17-6.39-20.28-13.64-28.08-22.83-14.37-17.86-23.82-38.31-26.98-62.53-4.46-39.72 9.58-75.37 35.03-104.1 25.85-28.27 58.44-44.86 98.09-48.46 63.8-5.91 123.44 23.35 157.34 74.47z" fill="#ccc"/>
    <path d="M312.5 74.38c-15.818-15.84-34.467-28.487-55.09-37.873-32.64-14.217-67.81-18.375-102.64-10.954-25.736 6.027-48.486 17.43-68.254 34.21-22.067 18.734-37.36 43.583-44.89 72.915-6.014 26.462-4.237 51.85 5.718 76.622 6.72 17.235 17.51 31.807 31.906 44.107 18.44 15.197 40.442 23.413 64.91 22.417 31.73-.83 62.295-18.87 69.253-51.67 1.016-7.19 1.57-13.99-.423-21-1.423-3.54-2.386-7.468-5.117-10.686-3.512-4.136-10.426-8.553-14.31-2.88-.53 1.24-1.52 2.87-2.048 4.11-4.79 16.723-16.17 30.338-33.518 33.2-20.816 3.433-39.602-7.514-51.102-23.855-9.158-13.583-12.157-29.23-9.988-45.31 4.73-31.702 27.742-56.775 57.684-67.164 27.26-8.9 56.55-6.08 81.99 7.12 29.17 14.79 50.04 42.16 59.9 73.34 8.69 29.8 7.5 60.08-3.89 89.52-5.29 12.4-11.29 23.03-19.06 34.38-8.16 10.88-17.49 20.39-27.61 28.97-10.96 8.51-23.1 15.65-36.01 21.87-20.38 8.6-41.26 12.88-64.03 14.02-31.65-.02-61.45-7.16-88.85-22.66.46-.39.46-.39.07-.85 33.99 18.6 71.44 26.37 111.3 20.21 35.55-5.66 66.76-21.07 91.54-46.86 13.61-14.72 23.89-30.57 31.44-49.63 8.75-23.25 11.93-46.52 8-71.65-4.97-28.22-17.54-52.35-38.18-72-21.88-20.18-49.7-30.59-80.18-29.23-21.92 1.2-41.45 9.87-57.15 23.99-15.77 14.97-25.94 34.67-24.8 57.44.45 15.44 6.6 29.2 15.96 40.23 9.83 10.64 24.32 16.53 39.44 14.77 11.26-1.65 20.32-7.76 26.25-17.54 4.03-7.37 3.41-15.55 4.11-24.05.81-4.64 4.87-7.31 9.12-6.96 9.74 1.22 16.38 9.04 20.39 17.49 8.61 20.38 2.48 42.98-12.12 59.33-14.14 15.95-31.9 23.92-53.04 26.04-26.31 2.55-48.7-6.12-69.23-21.92-20.14-15.34-32.53-36.46-39.15-60.1-10.08-38.9-2.11-78.89 21.99-112 11.52-15.31 24.53-27.94 40.8-38.59 23.42-14.34 48.05-22.6 75.99-24.17 51.09-2.24 100.06 16.3 132.98 53.22z" fill="#999"/>
    <path d="M316.403 78.977c-14.898-16.62-33.546-29.266-53.642-39.893-25.51-12.353-52.43-17.975-82.07-16.546-27.08 1.637-50.8 9.112-73.76 23.066-21.58 12.782-37.56 30.3-49.95 51.108-14.3 23.217-20.24 48.83-17.9 77.686 2.24 24.997 11.62 46.3 27.23 64.688s37.2 31.705 61.71 35.418c29.61 4.13 61.32-6.968 76.75-33.517 5.48-9.393 9.39-20.625 7.35-32.343-1.21-6.09-3.67-12.707-8.95-16.133-2.48-1.05-5.49-.87-7.39 1.54-4.35 6.07-6.6 12.73-11.4 19.18-5.72 7.24-13.33 11.32-22.11 14.03-15.78 4.7-32.83-1.4-45.66-11.86-11.59-9.93-17.74-23.7-20.35-38.88-1.83-14.27.52-27.34 6.27-40.13 7.94-18.6 22.79-32.79 41.47-41.53 30.36-15.49 64.82-13.1 93.92 2.54 23.75 13.07 42.23 32.97 53.43 58.27 12.69 27.99 14.58 57.24 6.98 87.42-12.06 48.22-44.94 84.04-88.86 103.12-49.68 21.61-106.63 16.96-153.27-9.1 14.89 6.35 28.39 13.87 44.79 17.35 22.74 4.43 43.92 7.01 67.36 2.94 36.01-6.04 67.67-21.85 92.46-47.63 26.69-28.19 42.43-63.7 40.98-103.61-1.4-35.19-14.2-67.04-40.05-90.97-18.69-17.36-41.86-26.95-66.9-29.43-22.56-1.41-43.97 4.11-62.54 16.71-18.64 13.45-31.74 32.49-34.93 55.76-1.71 15.69 1.68 31.8 10.45 44.92 7.67 10.9 17.71 18.99 31.1 22.65 4.64.81 8.89 1.15 13.6 1.11 6.02-.36 11.72-2.04 17.09-5.02 11.68-6.75 18.53-17.31 20.88-30.38.74-3.79 3.25-8.29 7.89-7.48 6.34.95 10.17 6.4 13.16 11.77 5.83 12.46 4.72 26.06-.57 38.46-11.04 25.2-34.99 40.78-62.93 42.35-20.14.5-38.71-2.73-55.79-13.54-7.3-4.87-14.14-10.14-20.52-15.79-20.96-20.96-31.95-48.81-33.77-78.91-1.04-29.18 7.07-55.05 22.29-79.04 17.59-26.8 42.67-45.72 72.68-56.96C196.03 7.99 271.8 28.3 316.43 79z" fill="#ccc"/>
    <path d="M299.483 60.91c-39.68-32.763-92.004-46.88-143.724-36.987-20.04 4.354-37.74 11.464-54.93 22.895-25.4 17.604-45.72 41.186-56.72 71.09-17.77 49.89-5.74 106.918 37.73 140.418 29.39 22.51 68.28 28.254 101.01 9.964 18.36-10.05 32.11-26.47 35.54-47.58 3.29-19.41-4.89-44.894-26.92-47.55-5.95-.485-9.31 3.946-8.94 9.966 1.64 11.258-.11 22.24-8.45 30.114-14.39 13.8-37.41 12.773-52.66.404-11.21-9.472-18.8-21.217-21.02-35.944-2.98-21.208 2.48-40.87 15.84-57.747 16.57-19.61 38.87-30.624 65.1-32.33 30.09-1.82 57.45 8.972 79.33 29.157 20.25 19.195 33.68 43.396 38.18 72 3.93 25.137.75 48.406-7.99 71.65-17.42 45.64-55.97 77.572-102.02 91.35-28.96 8.76-57.67 9.406-88.25 1.348-15.49-4.26-29.59-9.69-43.55-16.82l-2.34-2.76c45.33 26.38 101.43 30.963 150.97 11.053 19.07-8.28 35.8-19.32 50.65-33.51 18.21-18.62 31.45-39.35 38.31-65.75 7.99-29.72 6.03-58.12-5.41-85.58-12.62-28.84-34.68-52.03-64.52-63.88-32.78-12.52-70.8-7.92-97.08 15.17-22.14 19.59-32.5 52.11-20.27 80.49 8.03 16.92 24.98 29.42 45.26 27.23 7.33-.68 13.17-4.06 18.29-9.2 2.83-3.19 4.88-7.3 5.69-11.94 1.01-7.19-2.82-12.63-4.43-19.18-.64-2.62.41-5.1 1.86-7.12 6.11-6.77 15.93-6.4 23.37-3.22 21.47 9.46 28.81 34.87 23.14 57.08-8.59 31.82-35.37 50.59-67.37 54.82-27.23 3.34-51.85-4.23-73.55-21.41-16.49-12.9-27.6-28.78-35.49-47.39-8.99-20.84-10.66-42.37-8.39-64.86 5.77-44.45 32.3-81.21 70.55-104.18C167.9 5.7 247.66 13.93 299.44 60.95z" fill="#999"/>
    <path d="M303.065 64.197c-28.404-24.14-63.13-38.958-100.92-42.474-34.39-3.237-67.134 4.783-96.85 22.89-31.555 19.67-54.386 47.753-64.31 85.447-9.467 37.304-3.103 74.618 18.405 104.612 22.288 30.913 60.597 49.017 98.83 41.874 25.206-4.786 45.754-20.648 55.81-44.212 7.017-17.825 4.962-39.81-10.674-52.64-5.604-4.736-16.653-5.64-17.807 3.25-1.23 9.74-.75 19.62-7.4 27.634-6.19 7.624-14.25 12.1-24.2 13.425-21.6 2.514-39.4-10.063-48.6-28.357-16.13-32.977-1.82-72.024 27.19-91.9 18.11-12.212 39.13-18.194 61.69-16.78 14.91.792 28.23 5.303 41.41 11.514 24.27 11.823 41.84 32.51 53.49 57.422 10.23 21.373 13.91 44.35 11.12 68.078-3.95 32.62-17.43 61.467-39.91 85.3-24.79 25.784-55.6 41.663-92 47.245-39.41 5.767-78.16-1.68-111.69-20.677 46.33 24.748 102.36 30.182 151.65 8.112 19.07-8.282 36.19-18.86 50.72-34.36 13.15-14.327 24.28-30.103 31.36-48.777 8.74-23.244 11.93-46.515 7.99-71.65-4.58-27.756-16.7-52.276-37.34-71.93-18.3-16.898-41.02-26.884-66.06-29.357-22.1-1.806-43.13 4.177-61.24 16.388-15.42 10.72-26.02 25.256-31.41 44.068-4.54 18.88-2.6 37.008 8.51 52.89 8.83 12.274 21.88 20.185 36.79 20.976 9.81.374 19.5-3.113 26.08-10.277 3.28-3.58 5.33-7.69 6.99-12.26 1.4-6.73-.2-13.28-.49-20.15.09-6.41 6.71-8.86 12.2-7.98 18.56 3.23 27.3 21.91 27.15 39.44-.13 27.8-18.69 50.67-43.07 61.08-18.16 7.5-37.14 9.38-56.87 4.77-23.06-5.73-41.71-18.38-56.15-35.39-28.1-33.1-34.62-78.98-20.49-121.04 8.36-23.7 21.93-43.13 40-60.05C97.81 47 114.86 37.27 133.8 30.69 190.75 9.25 258.055 23.3 303.06 64.2z" fill="#ccc"/>
    <path d="M288.737 51.046c-25.56-17.063-53.374-27.464-84.295-31.274-28.83-3.21-55.805 2.286-82.415 13.802-18.224 8.352-34.105 19.46-48.565 34.11C56.565 85.98 44.63 106.398 38.295 131.55c-2.672 11.76-3.965 22.35-4.088 34.32.76 32.577 13.24 63.117 36.223 85.53 16.67 15.908 37.224 26.146 60.495 29.33 16.54 1.78 32.118-.37 47.192-6.84 13.305-5.758 23.88-14.734 32.11-26.468 15.268-19.29 17.95-46.88 3.397-67.75-6.886-9.973-17.91-16.436-30.867-14.928-7.788 1.075-16.063 8.1-11.59 16.166 3.305 6.688 4.91 13.236 3.044 20.357-1.79 6.27-6.39 10.172-12.23 13.546-18.75 9.59-39.69-1.105-50.34-17.377-9.87-15.354-11.35-33.872-6.03-51.834 8.57-26.253 29.32-44.665 54.74-52 21.49-6.375 44.05-4.96 65.2 3.187 29.45 11.39 51.05 34.97 63.67 63.81 10.6 27.39 12.56 55.79 4.57 85.51-9.11 33.05-27.49 58.93-53.87 78.17-28.29 21.64-62.16 32.99-98.92 32.56-32.05-.48-61.77-8.47-88.64-25.21-1.63-.99-2.41-1.91-3.58-3.29 31.76 19.71 67.69 30.34 107.34 26.74 42.67-3.79 79.64-21.73 107.07-53.72 28.35-32.77 39.47-74.64 31.43-117.66-6.39-31.76-24.31-58.46-51.11-76.05-15.45-9.82-32.56-15.07-51.72-16.21-16.61-.93-32.32 2.92-47.08 10.7-24.59 12.96-40.27 37.35-39.1 64.83.59 13.74 4.72 26.05 14.23 35.39 8.34 7.95 19.43 13.56 31.61 11.13 6.94-1.15 12-5.44 15.88-11.11 4.03-7.37-2.29-13.88-4.74-20.5-3.87-10.16 5.92-20.06 16.33-21.77 9.56-1.79 19.16 1.13 26.85 6.47 10.5 7.7 16.07 18 18.89 30.63 5.11 26.51-7.7 52.42-28.25 68.28-9.13 6.95-20.2 11.61-31.6 14.96-26.19 6.41-53.97.72-77.18-13.58-17.47-11.27-30.81-26.05-40.4-44.8-15.81-31.67-18.2-65.24-7.7-99.46C52.05 84.28 77.5 55.55 113.3 36.23c33.12-17.83 68.06-21.39 104.4-15.86 23.2 4.038 43.9 12.57 63.857 24.9 2.87 1.52 4.82 3.82 7.23 5.726z" fill="#999"/>
    <path d="M291.54 53.415C266.83 36.42 239.152 24.32 207.773 20.9c-14.45-1.18-27.66-1.832-42.39.387-13.876 2.29-26.973 5.497-39.428 11.325-30.15 12.94-55.365 33.554-72.246 62.123-14.91 25.308-21.52 53.86-18 84.096 4.23 32.01 17.9 58.37 43.18 78.83 21.31 16.72 45.01 25.07 72.63 22.19 22.44-2.44 41.98-11.11 55.87-29.23 7.24-10.1 12.78-20.34 14.21-32.64 1.57-13.99-1.11-28.32-10.48-39.36-7.42-8.73-19.68-15.72-31.29-9.83-3.08 1.04-6.23 2.92-6.58 7.17.04 4.71 2.63 9.63 3.98 14.02 2.1 10.87-3.83 20.65-13.66 25.84-9.38 4.8-19.65 4.81-29.64 1.43-14.95-5.5-25.03-18.3-29.8-33.24-7.73-25.87 2.75-54.54 23.04-72.56 29.95-26.21 75.09-28.94 110.32-9.81 22.9 13 40.53 32.83 51.33 57.68 8.92 21.7 13.06 44.28 9.42 67.94-3.23 18.56-8.48 35.68-17.97 52.44-13.07 23.75-32.06 41.45-55.47 55.8-32.34 18.75-67.49 24.86-104.36 20.56-24.52-3.71-47.44-11.14-67.79-23.93 50.62 29.81 114.83 34.63 168.67 3.94 29.58-16.4 52.45-39.78 65.68-70.78 11.71-28.14 14.99-57.82 7.54-87.09-4.7-15.78-11.17-30.86-20.79-44.05-12.42-15.56-27.6-28.78-47.51-36.39-28.6-11.32-60.33-10.49-86.89 5.74-15.36 9.87-27.13 23.02-32.91 41.38-4.65 15.02-4.98 29.54 1.1 44.15 7.64 16.46 23.21 30.13 43.04 28.33 9.95-1.32 18.086-6.65 22.25-15.72 2.717-7.05.72-14.06-3.89-20.42-3.055-4.53.05-11.12 4.58-14.17 11.674-6.75 25.914-3.02 35.03 5.86 8.725 8.42 13.84 19.1 14.96 31.6 1.41 19.37-5.93 35.89-17.77 49.89-24.46 27.1-64.39 34.1-98.41 21.06-22.774-9.146-42.064-24.41-54.85-45.99-17.715-29.26-22.34-61.72-14.85-95.767 6.336-25.156 17.03-46.1 34.39-64.79 23.4-24.62 52.98-41.03 87.28-47.21 47.26-7.69 94.696 3.46 132.17 31.76z" fill="#ccc"/>
    <path d="M280.333 43.942c-26.55-15.432-55.282-25.053-86.87-25.923-29.04-.67-55.692 6.14-81.983 18.97-18.292 9.2-32.613 22.15-46.292 37.72-20.394 24.43-31.255 52.63-32.583 84.61-.62 33.75 10.02 65.85 33.715 90.03 19.722 20.43 46.018 33.71 75.058 34.37 32.048.48 62.016-15.47 77.126-43.33 7.52-13.51 10.08-29.13 6.62-44.38-3.528-14.41-11.906-27.07-25.48-33.74s-32.55-4.8-38.9 10.08c-1.127 3.33-1.864 7.12-.442 10.66 2.913 6.23 8.837 12.27 5.272 19.25-6.463 11.02-20.34 13.31-31.503 8.55-10.31-4.7-18.25-12.19-22.98-22.42-7.25-16-6.25-33.46.17-49.19 8.47-19.85 25.55-35.14 45.79-42.04s41.71-7.72 62.93-.42c23.71 8.35 42.99 23.62 56.7 44.42 18.64 28.47 24.5 61.47 17.86 95.58-6.43 31.56-22.78 58.89-46.29 79.64-25.81 22.71-57.66 35.51-93.85 38.54-39.19 3.21-75.12-7.42-107.27-27.59-3.26-1.98-5.21-4.28-8.01-6.65 19.04 13.11 38.35 22.81 62.27 28.62 42.8 10.34 84.22 6.02 122-16.56 22.5-13.57 40.18-30.95 53.56-53.38 14.91-25.31 21.06-53.48 18-84.1-6.21-54.84-48.32-99.78-103.78-101.75-40.54-1.18-81.82 27.54-82.35 70.71.1 19.69 11.26 40.28 31.98 43.26 7.65.62 17.81-3.26 16.34-11.5-.82-5.63-3.02-10.09-3.85-15.72-.11-3.86 1.94-7.97 3.53-11.69 4.09-8.23 12.16-12.7 21.26-14.1 16.89-2.47 31.88 7.74 41.11 20.47 8.38 12.66 11.45 27.46 9.35 42.69-2.31 17.78-12.12 33.23-25.07 45.01-25.88 23.56-63.9 28.15-97.14 16.02-41.06-15.76-67.58-52.58-73.38-96.69C27.2 137 42.64 94.63 73.86 63.38c25.1-24.475 55.917-40.35 92.24-45.085 39.336-4.915 76.39 2.39 109.85 22.24 1.63.99 3.26 1.98 4.43 3.36z" fill="#999"/>
    <path d="M281.894 45.78c-25.628-16.21-54.432-24.982-85.49-27.092-35.77-2.067-69.962 7.975-99.817 27.783-21.72 14.49-37.905 34.56-49.66 57.98-5.612 11.1-8.675 22.4-11.417 35.01-4.034 23.2-2.44 45.58 5.243 66.74 8.255 24.64 24.05 46.03 46.416 60.27 26.47 16.28 58.57 21.47 88.12 10.62 30.93-12.02 56.2-43.75 49.23-78.97-3.96-19.57-18.73-37.89-40.11-37.93-4.32.5-9.49.94-13.56 3.6-5.91 4.22-9.86 10.75-8.33 18.14 1.03 3.08 3.9 4.6 5.39 7.29 4.47 8.07-.08 16.68-7.3 21.23-18.9 11.29-39.7-1.1-49.36-19.01-7.07-12.98-7.66-26.72-4.78-41.03 4.74-21.43 19.27-36.93 37.7-47.83 31.81-17.51 69.21-14.45 98.88 4.66 26.8 17.59 44.33 43.84 51.18 75.2 8.96 42.24-1.39 85.03-30.19 118.19-27.43 31.98-63.7 51.7-107.14 54.56-40.44 2.69-79.12-5.6-110.99-29.17 31.69 20.56 67.15 31.59 106.28 29.22 21.53-1.66 41.17-6.47 60.77-15.99 24.06-11.72 43.83-28.51 59.3-50.34 17.06-25.56 25.76-53.51 24.47-84.85-1.57-27.93-11.06-53.1-28.63-73.78-12.95-14.32-27.88-25.38-46.55-32.47-24.17-7.96-49.41-7.89-73.02 3.45-24.06 11.73-41.38 35.13-41.9 62.47-.29 19.23 8.45 37.91 26.21 45.78 7.44 3.17 15.55 3.41 23.09.18 6.68-3.3 11.63-11.46 7.41-17.36-3.77-6.3-6.22-12.92-3.97-19.58 1.79-6.27 6.78-9.71 11.7-12.3 10.68-5.12 23.36-3.23 33.08 3.55 12.97 8.76 21.28 22.28 22.51 38.638 1.73 20.68-5.82 39.74-19.43 54.46-5.13 5.145-10.65 9.827-17.4 13.98-14.36 8.24-29.69 12.55-46.83 12.86-29.96.12-55.87-12.694-76.44-33.2-31.57-32.53-41.81-80-28.71-125.132 11.76-39.25 36.43-68.9 72.63-87.76 25.97-14.13 52.62-20.94 82.05-19.82 31.59.87 61.17 10.56 88.11 26.45l1.17 1.38z" fill="#ccc"/>
    <path d="M275.12 39.666c-20.484-11.086-41.64-19.232-65.828-21.636-29.68-3.28-58.216.376-85.677 11.824C80.23 47.7 48.273 82.74 35.425 130.034c-11.93 46.515.08 93.274 33.808 125.55 14.718 13.61 31.092 22.65 51.674 27.325 22.28 4.81 43.418 2.69 63.873-6.76 20.52-10.31 35.97-26.59 42.555-49.58 4.26-15.48 3.35-30.53-3.58-45.22-5.896-11.61-15.402-20.94-27.874-25.38-11.62-4.38-23.72-2.8-33.7 4.09-5.97 5.07-9.54 12.05-10.16 19.7-.87 5.49 2.18 10.02 3 15.64.37 6.02-4.23 9.92-9.4 10.35s-10.2-.83-15.16-2.95c-26.23-14.12-25.4-50.42-10.71-73.18 9.75-14.6 23.4-24.61 39.72-30.55 19.4-6.97 39.02-6.23 59.07-.31 18.36 5.78 32.89 16.38 45.91 29.85 21.22 23.12 32 53.52 31.06 85.96-1.19 30.28-11.52 57.24-30.67 82.2-16.71 21.31-37.97 35.4-62.35 45.81-26.08 10.28-53.69 13.15-82.52 9.94-30.53-3.35-57.35-15.38-82.38-33.69-3.19-2.83-6.77-6.12-9.96-8.94 28.4 24.14 63.13 38.96 100.92 42.48 34.39 3.24 67.13-4.78 96.85-22.89 32.41-19.6 54.39-47.75 64.31-85.45 6.93-27.24 5.23-53.48-4.27-78.64-13.05-34.01-41.7-60.31-78.76-67.62-18.95-3.69-36.69-1.29-53.99 6.28-19.14 9.13-32.82 24.7-38.35 45.21-3.93 16.79-1.07 34.14 13 45.13 5.67 3.89 16.65 5.64 17.81-3.25.65-13.21 3.07-27.13 15.28-35.12 13.12-8.77 29.73-7.84 43.23-.32 15.14 8.51 24.22 22.94 27.54 39.9 5.8 33.84-13.06 65.67-43.42 81.16-39.74 20.29-86.46 10.91-117.85-18.61-16.28-15.45-27.57-34.34-34.4-55.43-9.14-29.42-7.1-59.62 3.83-88.68 9.73-24.87 25.99-45.79 46.21-62.96 22-17.88 49.39-28.48 77.22-33.91 38.42-4.13 79.93.97 112.4 22.45z" fill="#999"/>
    <path d="M275.902 40.585C230.958 14.665 174.928 9.23 125.384 29.142c-25.232 10.347-46.24 26.6-63.874 48.688-11.98 15.707-19.708 31.76-25.166 51.423-10.983 40.174-3.197 81.026 21.57 112.998 21.328 26.99 52.906 43.69 88.492 42.74 36.438-.87 68.522-21.78 79.55-57.24 4.26-15.48 3.81-30.92-2.73-45.14-8.03-16.91-24.977-29.42-44.803-27.62-12.11 1.58-22.154 9.32-24.436 21.54-.486 5.95 1.188 11.65 3.78 16.57 2.133 5.31-.443 10.66-5.362 13.25-13.764 6.15-27.98-3.14-36.036-14.49-15.59-23.95-6.61-55.3 12.52-74.7 13.47-13.01 29.46-20.26 48.51-22.99 38.02-4.59 72.08 13.17 94.12 41.92 19.69 26 26.86 58.67 23.31 91.75-3.26 24.12-12.71 45.6-27.2 65.8-16.33 21.77-36.81 36.78-61.65 47.59C149.61 366.14 82.48 355.1 35.11 317c18.64 12.646 36.97 23.984 60.81 30.638 28.87 7.92 56.21 8.446 84.56 1.778 32.74-8.02 60.23-25.025 82.46-51.02 23.22-27.62 34.49-60.926 31.92-97.503-1.23-16.356-5.61-30.832-12.54-45.52-8.81-17.83-21.37-31.692-37.537-43.28-30.77-21.34-70.33-24.143-102.346-4.083-19.88 12.92-33.126 33.66-32.13 58.122 1.09 18.06 11.212 35.57 30.23 38.41 4.64.81 9.1-1.39 11.15-5.51 3.034-5.74-1.51-12.96-.955-19.76 1.18-14.45 12.21-23.81 26.09-26.1 11.72-2.04 22.1 1.808 31.352 8.98 20.14 15.338 26.69 39.83 19.58 64.065-6.586 22.99-21.185 39.34-42.166 50.032-16 7.25-32.96 10.57-50.41 9.57-36.55-2.99-66.55-23.41-85.82-54.5-22.27-36.47-23.89-79.39-8.73-118.37 15.1-38.13 44.41-66.97 82.092-83.14C172.372 9.01 230.7 12.5 275.9 40.58z" fill="#ccc"/>
    <path d="M273.17 37.367c-27.01-15.042-56.802-22.182-88.46-22.2-14.98.058-29.315 2.737-43.332 6.726-27.183 8.047-51.452 22.322-71.108 42.964-8.943 9.964-16.576 19.608-23.108 31.482-6.072 11.48-10.835 22.64-14.037 35.64-9.353 41.16-.787 82.93 25.683 115.04 16.392 19.31 37.518 33.01 63.59 38.56 26.922 5.62 53.437.51 76.076-14.75 15.42-10.72 26.48-25.65 31.938-45.31 7.99-29.73-3.89-62.36-33.335-73.75-8.29-3.25-17.18-4.4-25.96-1.7-5.308 2.13-10.615 4.26-15.213 8.17-5.976 5.07-9.472 11.2-11.406 19.17-1.405 6.73-.47 16.22-8.33 18.14-10.198-.83-16.304-9.89-19.86-18.74-7.865-24.18 4.028-49.3 23.198-63.99 26.456-20.09 63.743-20.89 93.3-5.64 34.908 17.82 56.14 51.22 60.135 91.33 4.18 43.12-12.15 80.72-40.61 109.63-18.59 18.16-40.64 31.33-66.05 38.67-58.22 16.21-121.85-.97-165.02-43.43l-7.02-8.28c35.08 36.66 82.85 59.39 135.72 56.44 33.57-2.39 63.97-13.17 89.19-33.79 22.46-18.27 39.7-40.82 48.15-70.94 10.99-40.18 3.66-81.42-22.49-112.22-5.46-6.44-11.85-12.1-18.69-17.36-29.53-20.81-68.49-25.71-99.2-5.97-18.5 11.75-31.67 31.64-28.38 54.16 1.15 6.94 4.89 18.79 14.05 16.55 2.23-1.1 4.14-3.51 5.2-5.99 5.82-13.64 16.14-24.78 30.62-29.16 13.56-3.6 28.26-.26 39.6 7.51 12.2 7.84 20.65 19.65 24.63 33.67 6.56 24.49-.17 49.18-16.35 69.25-14.21 16.81-32.11 26.47-53.84 30.68-24.29 4.01-47.95.36-69.67-11.25-23.74-13.07-42.23-32.97-53.42-58.27-10.16-22.22-12.54-45.52-10.13-69.71 3-26.28 12.14-49.07 28.01-70.45C74.48 55.74 95.1 39.03 121.25 27.9 170.86 7.14 227.88 10.943 274.524 37c-.78-.916-.465.395-1.31.325z" fill="#999"/>
    <path d="M273.56 37.827C253.143 25.89 231 19.375 207.27 16.58c-29.68-3.28-58.675.77-86.206 13.066-37.296 16.632-66.606 45.468-81.77 84.446-10.93 29.055-12.97 59.264-3.823 88.676 8.12 26.333 23.84 48.583 46.46 64.977 16.56 12.048 34.52 17.366 54.46 19.423 29.75 2.432 58.52-9.336 78.39-32.528 19.94-24.04 23.56-57.97 5.96-83.367-10.72-15.423-30.88-25.2-49.75-19.467-7.01 1.995-13.3 5.758-18.11 12.21-7.17 9.254-4.99 19.272-7.6 30.184-1.79 6.27-9.37 4.796-13.95 3.14-19.31-9.708-22.4-34.774-15.7-53.908 9.27-24.483 31.06-39.816 55.49-45.522 19.65-4.813 39.45-1.055 57.2 6.813 26.51 10.723 45.63 33.248 56.76 59.4 8.22 19.924 9.95 40.6 8.21 61.85-2.89 30.14-17.01 56.368-37.2 78.25-17.43 19.54-39.93 33.103-64.56 41.358-58.43 18.76-124.68 2.22-168.23-40.69 15.82 15.84 35.46 26.86 56.54 35.85 26.9 11.19 53.64 13.8 83.02 10.21 34.56-4.02 63.15-18.8 87.19-40.79 17.15-16.14 29.87-35.63 37.37-59.41 9.44-31.74 8.54-62.62-5.71-92.45-12.5-24.98-31.05-44.04-57.17-54.3-29.83-11.85-65.17-8.75-89.21 13.25-12.09 11.85-21.45 26.92-20.82 45.36 1.12 12.5 5.18 25.67 17.65 30.11 4.18 1.2 7.79-1.07 8.99-5.25 2.4-8.36 3.02-16.01 7.9-23.31 9.68-13.75 25.47-18.45 41.87-14.97 26 6.4 42.05 29.96 42.44 56.52.29 22.7-9.49 42.86-25.26 57.83-18.98 17.7-45 27.13-71.74 24.51-25.04-2.47-48.21-12.07-66.9-29.42-20.64-19.65-33.6-44.24-38.57-72.46-3.93-25.13-1.14-48.87 7.61-72.11 15.16-38.98 44.47-67.81 82.23-84.84 27.46-11.45 56.06-15.95 86.2-13.06 23.74 2.8 45.81 10.16 66.75 20.86-.46.39-.46.39-.07.85z" fill="#ccc"/>
    <path d="M275.33 37.116C241.34 18.51 203.965 9.893 163.712 15.59 127.32 21.17 95.72 36.13 70.48 62.305 43.79 90.502 27.593 126.4 27.73 166.625c.958 45.858 24.436 88.42 64.167 110.063 21.334 11.156 45.316 16.11 70.062 11.715 20.88-4.283 39.63-13.875 54.23-30.224 16.11-19.22 23.76-44.69 17.2-69.19-3.35-11.4-8.93-21.69-17.65-30.11-15.11-14.07-37.78-19.35-57-9.36-7.15 3.69-12.27 8.84-17.08 15.29-3.43 5.28-5.36 13.25-12.23 13.54-4.71.04-6.84-5.27-8.66-9.27-1.68-5.7-1.65-11.26-1.16-17.21 3.23-18.57 14.68-33.03 31.27-42.37 21.51-11.94 43.82-12.68 66.81-6.1 20.44 6.37 36.08 19.2 49.35 34.83 18.27 22.45 26.18 51.34 24.6 81.16-1.42 22.56-8.64 42.93-20.05 62.11-12.4 20.8-30.79 36.41-51.91 48.81-35.1 21.09-74.43 26-114.74 16.72-44.1-10-81.92-34.06-104.96-71.45 36.38 52.17 99.81 82.17 165.59 73 31.61-4.69 58.89-19.15 81.56-39.97 20.36-18.87 33.82-42.16 40.36-69.86 4.22-20.19 3.19-39.1-1.23-58.29-6.1-24.89-21.04-46.22-42.03-61.62-21.84-15.48-48.76-21.1-74.56-14.22-18.41 5.34-34.36 17.3-41.84 35.51-2.25 6.66-4.12 13.78-.36 20.08 1.88 3.15 5.88 1.33 8.17-.62 12.34-9.69 25.92-18.85 42.6-18.77 30.81-.05 54.5 24.13 58.94 53.59 2.9 22.05-2.16 42.17-15.59 59.9-16.26 20.92-38.23 33.24-64.6 36.65-36.72 4.27-69.82-9.55-94.29-34.66-15.75-16.69-26.98-36.43-32.43-58.7-6.92-30.51-3.96-61.5 8.67-90.42C58.45 62.14 98.7 30.35 146.31 18.41c44.99-11.3 93.16-3.94 133.14 19.86-1.17-1.38-2.48-1.06-4.18-1.2z" fill="#999"/>
    <path d="M274.48 37.046c-52.776-29.555-118.503-31.502-172.03.49-35.093 21.09-60.36 52.826-70.104 93.528-6.75 30.253-4.86 59.5 7.367 87.88 6.86 15.535 16.086 28.268 28.394 39.97 31.776 29.977 79.28 40.276 119.405 20.45 21.44-11.08 38.2-27.68 44.465-51.984 3.938-16.79 3.1-32.69-2.912-48.155-9.633-23.462-35.792-38.434-61.137-31.948-15.326 4.31-25.006 18.064-30.896 32.557-1.587 3.722-5.977 5.074-9.237 3.097-8.543-5.4-10.26-15.81-10.345-25.23.65-13.21 6.333-25.15 15.276-35.11 12.23-13.54 28.684-21.19 47.662-23.06 19.438-2.26 37.148.9 53.522 9.94 15.134 8.51 27.9 19.82 37.84 34.33 16.755 25.33 23.744 54.99 19.544 85.46-3.088 16.86-8.2 32.28-16.248 47.02-15.432 26.55-37.248 47.44-65.697 60.52-31.53 14.11-64.39 18.27-98.96 12.03-37.51-6.92-68.88-26.17-94.99-52.26-2.34-2.76-4.29-5.05-6.18-8.2 32.32 39.01 80.41 63.04 132.22 62.57 33.36.16 64.47-8.85 90.86-28.08 27.76-20.41 48.04-48.7 56.06-83.98 4.67-20.58 3.72-40.34-1.09-59.99-7.84-29.73-28-55.34-55.53-69.14-16.06-7.73-32.85-11.67-51.44-9.34-21.67 3.36-40.88 13.35-52.68 32.06-6.99 12.27-11.85 29.84-1.25 41.4 2.73 3.22 6.8.56 8.71-1.85 5.26-6.84 9.68-13.75 16.5-18.75 9.51-6.49 20.52-10.3 32.42-9.33 18.7 1.53 34.02 13.05 43.43 28.79 10.51 17.97 11.46 37.73 4.76 56.86-7.5 23.77-23.94 41.68-46.16 51.85-31.07 13.72-65.99 11.72-95.02-4.76-33.92-19.46-56.46-52.53-62.16-92.78-4.23-32 2.13-62.72 17.63-90.11 21.37-36.33 55.18-62.66 96.31-73.85 45.06-12.16 92.84-5.26 133.36 17.3l-1.71-.14z" fill="#ccc"/>
  </g>
  <path d="M208.206 7.36c-29.165-5.076-58.6-2.292-86.974 7.284-32.77 10.906-59.42 32.204-80.742 60.162C1.84 127.53.873 201.45 44.47 251.216c16.173 18.188 35.48 30.05 58.984 36.92 23.57 6.272 47.48 4.086 69.793-5.56 20.448-9.248 34.974-25.223 43.376-46.13 6-15.712 6.142-33.293-2.51-48.214-4.124-6.528-10.913-16.388-19.905-11.93-2.734 8.19-1.34 17.447-2.876 25.77-4.14 20.776-20.395 35.952-40.908 40.337-21.112 4.31-40.954-2.75-56.93-17.28-26.958-24.85-31.27-62.35-17.335-94.77C94.09 89.28 136.92 64.33 181 66.21c28.37 1.346 54.604 10.948 77.97 29.938 31.152 25.32 48.052 58.76 50.896 98.518 1.92 20.842.98 40.153-5.557 60.662-6.67 21.707-17.14 39.35-31.26 57.19-25.32 31.153-58.5 51.115-96.46 59.62 8.32-3.923 16.98-5.384 25.24-8.71 14.65-6.253 27.57-13.306 40.76-22.756 11.99-9.585 22.18-19.37 32.04-31.618 27.52-34.55 39.26-74.5 34.42-118.124-3.12-26.44-12.7-49.353-28.54-70.537-24.89-32.51-61.44-52.97-102.73-52.726-39.49.45-77.53 20.474-95.99 55.43-11.53 21.77-14.28 46.34-6.56 69.65 4.59 13.255 12.44 24.446 23.56 33.575 13.91 11.26 30.89 16.798 48.87 13.344 13.65-2.725 26.04-10.444 33.44-22.36 3.73-6.26 5.73-13.316 5.94-20.575.27-7.86-2.59-14.85-4.79-22.38-.8-3.73-2.13-8.12 1.73-10.12 10.12-3.72 20.24 3.48 26.7 10.87 14.51 16.79 16.23 39.43 9.03 60.47-10.34 27.37-33.12 46.67-60.7 54.51-46.29 12.43-95.56-8.23-123.31-47.74-28.28-40.16-32.45-89.77-14.05-135.05 15.2-38.35 43.38-67.97 81.82-86.13 33.31-15.7 69.87-22.54 104.69-13.8z" fill="#999"/>
  <path d="M215.332 8.76C172.582.35 128.76 6.99 89.792 29.946c-29.243 17.367-50.765 41.664-64.43 71.69-9.734 21.973-14.074 44.546-12.62 69.586 2.383 27.573 10.562 52.15 27.534 74.067 14.908 18.65 33.415 32.24 56.186 40.25 19.842 7.06 39.887 6.87 59.8 2.42 24.377-6.38 46.16-22.16 56.693-45.86 4.8-10.39 7.202-21.04 6.076-32.7-1.46-8.66-4.18-16.85-9.44-24.11-2.13-2.67-4.99-4.2-7.92-5.13-2.39-.27-4.99 1.26-5.33 4.26-1.8 10.72-2.94 20.9-7.67 30.69-8.39 15.44-22.92 25.96-40.83 28.81-32.7 4.84-61.86-16.61-73.69-46.45-12.23-31.71-5.43-65.53 16.36-92.23 16.73-19.37 36.91-31.68 61.15-36.86 32.9-6.65 66.8-.44 95.09 17.89 15.25 10.19 28.49 21.99 38.87 37.71 13.91 22.18 23.49 45.09 25.34 72 1.26 21.37-.28 40.62-7.49 61.66-9.27 28.7-24.06 52.53-46.32 72.5-24.25 21.56-51.43 36.73-82.46 42.98 23.78-6.45 45.49-16.16 66.48-30.2 12.53-8.92 22.19-19.37 32.65-31.55 23.86-28.89 35.46-62.18 37.01-97.81 1.22-32.63-8.62-64.07-27.39-91.65-17.83-25.05-41.47-41.64-70.83-50.38-21.11-6.6-42.35-6.54-63.53-1.63-18.78 5.19-35.57 14.24-50.5 28.35-13.52 12.44-21.32 27.96-25.66 45.07-9.14 32.96 1.44 68.72 29.6 88.25 14.64 10.13 31.89 13.27 49.27 9.74 13.12-3.39 24.91-11.18 32.24-22.49 6.73-11.39 8.14-23.97 6.61-37.49-.2-3.67-.33-7.93 3.4-8.73 3.8-1.4 7.86.27 11.19 3.07 18.77 16.65 19.49 42.83 10.43 64.26-10.66 24.9-33.31 43-59.49 49.18-11.78 2.32-24.11 3.98-36.09 2.64-22.71-3.14-43.61-11.548-62.52-27-30.5-25.84-44.74-61.4-45.92-99.76-.58-38.29 11.76-72.72 38.15-102.54C92.14 14.42 155.61-5.198 215.34 8.75z" fill="#ccc"/>
  <path d="M185.566 3.62c-22.375-.678-44.62 2.91-66.066 10.224C85.997 25.882 57.552 46.978 37.292 76.27c-14.594 22.037-23.33 45.938-26.205 71.71-3.21 28.767 2.703 57.338 17.34 83.85 13.775 23.38 32.48 40.638 56.714 51.837 16.72 7.933 34.56 11.137 53.47 10.215 23.85-1.588 45.49-10.7 62.62-28.207 22.52-22.365 32.39-56.457 14.96-85.1-4.19-5.93-8.45-11.258-14.71-14.99-3.46-1.6-6.85-3.8-11.05-4.268-5.39-.602-13.45.926-12.39 7.718.47 1.266.87 3.13 1.33 4.396 7.99 15.46 9.04 33.17-1.62 47.15-12.79 16.78-33.97 21.7-53.55 17.69-15.98-3.6-28.89-12.93-38.34-26.12-18.3-26.31-18.75-60.34-4.08-88.44 13.73-25.16 36.98-43.2 64.56-51.04 31.37-9.24 65.33-3.63 93.9 12.3 26.77 15.73 46.67 38.58 58.57 67.82 4.66 12.66 7.58 24.51 9.71 38.1 1.53 13.52 1.25 26.84-.22 40.03-2.14 13.72-6.07 27.24-11.2 40.62-8.93 20.24-21.19 37.69-36.99 54.13-23.05 21.7-49.63 36.94-80.2 44.45.07-.6.07-.6-.53-.66 37.5-9.77 70.08-29.8 94.86-61.62 21.99-28.49 34.13-61.12 34.48-96.88-.19-20.04-3.58-38.63-11.16-57.68-9.58-22.91-23.22-42.03-43.33-57.62-22.97-17.13-48.67-26.06-77.17-26.21-29.77.32-57.14 11.83-78.4 33.73-15.14 15.9-23.41 35.61-25.15 56.65-1.21 21.71 4.91 43.02 21.35 58.82 10.92 10.92 24.83 16.72 39.21 18.33 14.45 1 29.04-4.65 38.83-16.3 7.06-8.92 9.47-19.57 7.08-30.76-2.12-8.12-8.18-13.65-13.51-20.31-2.59-3.93-1.46-8.66 1.87-11.32 7.93-5.79 18.12-4.65 26.84-1.25 20.24 8.94 31.29 29.59 31.88 51.5.66 21.31-6.81 39.29-20.73 55.33-17.39 19.91-39.64 28.95-65.41 31.54-25.17 2.65-48.68-4.22-69.72-16.88-34.02-21.39-55.64-55.96-60.82-96.59-2.12-19.04-1.31-37.16 3.23-56.07 7.2-26.5 19.47-49.41 38.72-69.71 35.65-36.68 84-56.77 133.28-52.48z" fill="#999"/>
  <path d="M191.56 4.29c-22.243-1.877-44.487 1.71-66.4 7.76-27.04 8.51-50.488 22.882-71.076 44.25-18.59 19.77-30.72 41.473-37.857 67.375-6.937 24.103-6.55 47.81-1.3 71.455 5.515 26.706 18.757 49.42 40.257 68.81 18.772 16.658 40.21 25.725 64.183 28.4 23.973 2.675 48.815-2.44 69.2-16.55 24.382-17.302 39.846-47.128 32.867-77.033-2.46-10.59-7.314-21.447-16.835-28.577-5.06-3.6-11.39-6.732-17.58-5.602-2.53.93-4.6 3.128-4.33 6.19.99 7.394 3.92 13.787 4.85 21.778.79 9.19-1.94 17.38-6.47 25.37-8.27 14.247-24.85 21.498-41.37 22.69-15.25.724-29.17-5.076-41.48-14.34-11.12-9.128-18.37-20.252-22.96-33.507-6.99-18.99-5.91-39.5 1.69-58.67C88.42 102 115.14 80.1 147.04 71.53c26.24-6.78 53.345-4.97 78.846 5.763 28.43 11.667 49.864 31.656 65.034 58.833 24.29 43.364 24.93 91.98 6.064 135.99-21.333 49.8-65.97 85.474-117.785 98.502 15.18-5.588 30.17-9.377 44.49-18.094 19.58-12.377 36.77-25.02 51.03-44.06 22.06-29.092 34.26-62.317 34.61-98.077.08-38.826-12.82-75.46-41.24-103.51-25.16-24.65-56.32-39.05-91.55-38.734-25.51.187-48.95 9.1-68.87 24.474-17.39 14.442-29.19 33.148-34.06 55.056-4.34 22.574-.82 45.417 12.82 64.536 9.51 12.59 23.03 21.98 38.41 25.52 13.05 2.67 25.9 1.67 38.16-4.85 3.93-2.6 7.26-5.26 10.66-8.52 4.13-4.4 7.13-9.52 9-15.38 3.87-12.92 1.61-25.31-5.64-36.43-2.07-3.27-3.33-8.26.6-10.86 5.26-3.66 11.79-2.33 17.65-.46 12.78 5.06 21.3 15.72 25.96 28.38 9.24 25.91 2.5 53.67-16.75 73.98-14.33 14.17-30.05 24.56-49.9 28.41-8.66 1.46-17.25 2.32-25.77 2.58-29.64-.88-56.73-13.62-78.7-34.27-20.77-20.52-32.61-44.9-37.99-72.81-5.58-31.57-.31-62.53 13.82-91.29C55.23 35.19 124.3-2 191.56 4.29z" fill="#ccc"/>
  <path d="M166.854 2.745c-51.346 3.373-99.106 28.988-129.96 71.66-11.595 16.91-19.595 34.22-24.266 54.33-6.408 30.23-5.024 61.33 7.48 90.638 21.29 48.49 69.154 81.744 123.764 76.31 36.828-3.78 69.07-26.272 80.342-62.028 6.47-19.908 5.214-41.286-6.765-59.006-10.92-16.39-34.35-29.32-52.21-16.14-4.67 3.72-4.07 9.25.32 13.38 8.92 7.06 15.17 16.25 14.5 27.71-1.01 19.91-18.47 34.95-38.04 36.41-14.65.79-28.24-2.55-39.95-11.74-16.71-13.4-26.22-31.45-28.08-52.89-1.39-25.64 7.28-48.95 25.2-68.18 20.65-21.97 47.96-32.88 77.73-33.2 27.9.08 54.27 8.48 77.17 26.21 20.1 15.59 33.74 34.71 43.32 57.62 18.63 45.16 12.48 94.84-11.58 136.45-15.06 26.23-35.51 46.4-63.29 61.5-14.19 7.52-28.18 13.24-43.23 17.63l-3.59-.4c51.08-11.9 95.05-47.04 117.45-95.51 8.2-19.11 12.8-38.62 13.88-59.13.48-26.04-4.11-50.21-17.21-74.13-14.57-27.11-35.48-46.44-62.64-58.57-28.97-12.34-60.93-14.08-90.77-2.24C104 92.8 79.48 122.22 76.2 157.05c-2.68 29.43 12.09 60.206 40.454 72.473 17.445 6.8 38.356 4.28 51.616-11.23 4.866-5.525 6.8-11.984 7-19.243-.13-4.26-1.46-8.653-4.053-12.583-4.19-5.93-10.72-7.265-16.378-10.93-2.27-1.466-3.2-3.998-3.53-6.46-.2-9.126 7.2-15.58 14.79-18.375 22.11-7.847 44.88 5.616 55.99 25.666 15.57 29.04 8.96 61.07-11.43 86.1-17.53 21.102-40.64 32.48-68.21 34.862-20.84 1.92-39.82-2.02-58.33-10.15-20.84-9-36.82-23.528-50.59-41.45-26.28-36.31-32.19-81.26-20.11-124.21C33.24 52.75 96.93 4.03 166.86 2.73z" fill="#999"/>
  <path d="M171.715 2.682C134.488 4.595 99.055 17.63 69.142 40.99c-27.247 21.23-45.574 49.525-54.78 83.084-9.474 35.957-6.827 72.052 11.803 106.29 18.697 33.64 48.92 56.43 85.144 63.505 37.42 7.21 77.71-5.89 100.64-37.32 15.06-20.77 19.13-46.41 10.29-70.45-7.12-17.79-23.7-32.38-43.87-30.99-7.33.39-15.99 7.31-10.73 14.58 5.79 7.92 12.91 14.79 13.57 25.18.73 9.79-2.08 18.58-8.41 26.36-14 16.64-35.57 19.69-54.82 12.69-34.34-12.92-50.71-51.15-43.23-85.51 4.8-21.31 16-40.09 33.39-54.53 11.39-9.65 24.18-15.51 38.03-20.03 25.77-8.05 52.74-5.04 78.31 5.1 22.1 8.53 40.54 22.72 54.78 41.91 19.5 26.45 29.47 56.69 29.46 89.45-.35 35.77-11.89 68.46-34.55 97.48-24.72 31.22-58.03 52.38-95.46 61.56 50.68-13.76 95.19-48.23 115.92-98.1 8.2-19.11 13.4-38.55 13.35-59.8-.26-19.45-2.98-38.56-10.63-57.01-9.58-22.92-23.22-42.03-43.33-57.63-22.37-17.06-48.01-26.6-76.51-26.74-24.91.25-48.29 8.56-68.21 23.94C92 107.87 80.81 126.64 76 147.95c-3.87 18.377-1.62 36.227 7.36 53.61 9.65 16.85 23.493 28.71 42.47 32.65 14.85 2.87 29.77-.32 41.16-9.97 7.395-6.453 12.06-15.64 11.93-25.364-.062-4.86-1.392-9.255-3.32-13.72-3.593-5.86-9.25-9.525-14.178-14.323-4.326-4.73-1.193-11.054 3.403-14.18 15.72-10.38 34.896-2.78 46.81 10.077 18.97 20.32 21.154 49.69 10.555 73.99-8.064 17.91-20.593 32.29-38.11 42.47-20.717 11.644-42.96 15.23-65.136 12.755-43.15-4.815-79.366-33.734-97.927-74.033-10.18-22.98-13.63-46.422-12.09-71.128 1.605-19.846 7.34-38.62 16.61-56.4C52.28 39.724 110.9 3.79 171.7 2.69z" fill="#ccc"/>
  <path d="M152.27 2.938C121.966 8.052 94.59 19.56 69.476 37.994c-23.183 17.437-39.043 39.938-50.51 66.57-7.534 18.576-11.472 37.553-11.948 58.13.254 24.906 5.57 47.95 18.213 70.6 6.13 10.39 12.45 18.983 20.57 27.778 22.9 23.185 52.93 36.852 85.03 37.4 23.04.143 45.02-6.505 64.14-20.148 13.26-10.05 23.12-22.298 29.65-37.345 5.74-13.32 7.27-27.11 5.22-41.29-2.12-24.51-19.09-46.43-43.99-51.63-11.85-2.54-24.3.32-32.7 10.3-4.93 6.12-6.13 16.91 2.66 19.71 7 2.6 12.65 6.26 16.18 12.72 3 5.79 2.33 11.79.39 18.25-7.06 19.84-29.64 26.42-48.55 21.88-17.71-4.41-31.49-16.86-39.94-33.58-11.77-24.98-9.29-52.62 4.17-75.39 11.26-19.38 28.65-33.82 49.63-42.4 29.24-11.91 61.14-9.56 90.1 2.77 26.5 12.66 47.4 31.98 61.98 59.1 16.04 30.3 20.42 61.74 14.41 93.83-5.74 35.16-22.61 66.65-49.65 91.54-23.65 21.63-50.76 36.2-81.8 42.45-1.86.4-3.06.26-4.86.06 36.63-7.44 70.07-24.34 96.46-54.16 28.45-32.02 43.05-70.44 41.08-112.53-1.85-43.29-22.47-81.39-57.82-107.18-26.43-18.72-57.79-25.86-89.36-20.28-17.98 3.45-34.03 11.37-48.76 23.68-12.72 10.72-21.52 24.3-26.92 40.08-9 26.3-3.69 54.8 16.01 73.99 9.85 9.59 21.31 15.72 34.62 16 11.52.07 23.44-3.46 30.64-13.57 4.27-5.6 5-12.19 3.94-18.98-2.13-8.13-11.19-8.53-17.51-11.67-9.79-4.73-9.45-18.65-3.05-27.03 5.73-7.86 14.72-12.32 23.98-13.71 12.92-1.6 24.04 2.07 34.76 9.34 21.91 15.79 30.35 43.43 26.28 69.07-1.87 11.32-6.73 22.3-12.73 32.56-14.67 22.63-38.78 37.54-65.49 43.05-20.44 3.78-40.29 2.17-60.13-4.89-33.22-12.21-57.99-34.99-73.82-67.1-17.17-36.5-18.35-74.86-5.54-113.48 11.87-35.69 34.86-62.25 65.1-83.15 19.6-12.93 40.52-20.91 63.49-25.63 3.13-.86 6.13-.53 9.19-.79z" fill="#999"/>
  <path d="M155.933 2.74c-29.637 4.58-58.078 14.756-83.26 33.79-11.324 9.052-21.384 17.638-30.58 29.354-8.53 11.184-15.86 22.5-20.927 35.285C8.1 131.26 3.89 163.56 11.2 195.92c6.51 28.64 21.283 53.95 44.582 73.54 25.03 20.39 53.06 30.192 85.493 27.745 26.972-2.45 49.952-12.63 68.076-33.664 14.66-17.17 22.93-36.88 20.61-59.59-1.66-12.32-4.65-23.57-12.04-33.5-8.45-11.26-20.23-19.85-34.62-21.46-11.38-1.27-25.1 2.05-29.5 14.31-1.53 2.86-2.53 6.39.13 9.72 3.26 3.4 8.52 5.2 12.52 7.47 8.99 6.47 11.38 17.66 7.78 28.18-3.53 9.92-10.99 16.98-20.58 21.37-14.65 6.25-30.77 3.85-44.48-3.75-23.37-13.53-35.41-41.57-33-68.6 3.82-39.62 34.8-72.57 73.56-82.81 25.58-6.25 52.01-3.9 76.91 6.77 21.37 9.66 39.88 23.26 53.46 42.98 10.38 15.72 18.3 31.77 22.89 50.49 6.78 26.24 5.1 52.15-2.1 78.65-10.67 35.83-32.06 64.38-61.84 86.55-20.38 14.11-42.16 24.42-65.74 29.07 57.27-13.03 107.31-53.56 125.45-112.82 10.27-32.23 10.89-64.92-.75-96.56-10.78-28.5-28.74-52.35-54.24-68.55-14.25-8.26-29.29-14.79-45.34-17.8-19.71-2.8-39.82-2.01-59.53 6.1-28.57 11.38-51.09 33.74-59.3 63.77-4.4 17.71-3.94 35.36 4.44 52.68 6.92 14.12 16.64 24.92 31.09 31.38 16.84 6.74 37.55 6.01 50.74-8.9 6.33-7.78 8.6-17.24 5.41-26.7-2.86-6.99-9.12-10.72-16.84-12.19-5.33-1.2-7.59-8.13-6.39-13.45 3.87-12.92 16.79-19.97 29.51-19.77 12.12.14 23.18 4.41 32.56 12.73 14.31 13.13 20.3 30.18 21.29 48.49.78 36.49-23.47 68.98-57.18 82.82-22.84 8.98-47.35 11.1-71.46 4.16-32.96-9.14-58.59-29.59-76.48-59.5C13.58 212.59 7 190.01 6.81 164.51c.15-33.965 10.42-66.19 31.148-94.217 29.12-38.02 71.285-62.44 117.97-67.547z" fill="#ccc"/>
  <path d="M141.28 3.532c-29.903 6.98-57.413 19.685-80.997 40.717-21.585 19.43-36.313 42.67-46.65 70.03-7 19.24-8.54 38.48-7.818 59.2 1.915 31.76 13.355 59.74 34.322 83.92 22.697 24.98 52.457 41.04 86.286 42.39 28.368 1.34 56.608-7.03 78.195-26.47 23.65-21.63 34.52-53.79 26.41-84.43-3.788-14.99-12.64-28.11-25.62-36.84-12.45-8.07-27.232-11.54-41.686-7.08s-26.98 18.83-21.393 34.02c1.46 3.19 3.52 6.46 6.98 8.06 6.39 2.53 14.85 2.87 17.04 10.39 2.85 12.45-5.67 23.64-17.06 27.83-10.73 3.65-21.65 3.65-32.1-.55-16.25-6.67-27.5-20.06-33.62-35.91-7.45-20.25-5.51-43.09 4.49-62s25.05-34.22 45.5-43.47c22.98-10.18 47.48-12.3 71.72-6.56 33.09 7.94 59.99 27.93 78.55 57.31 16.97 27.38 23.81 58.48 20.93 89.71-3.21 34.22-17.61 65.38-41.87 92.41-26.32 29.22-59.76 46.12-96.99 53.49-3.73.8-6.73.46-10.39.66 22.84-3.52 43.56-9.7 64.94-21.88 38.23-21.83 65.42-53.38 77.43-95.73 7.07-25.31 8.01-50.08 2.36-75.59-6.51-28.64-21.35-53.36-44.58-73.55-42.14-35.64-103.6-39.47-145.31-2.86-30.32 26.96-40.66 76.17-11.44 107.94 13.58 14.26 35.82 21.6 52.94 9.55 5.99-4.79 10.72-14.58 4-19.57-4.46-3.53-9.12-5.27-13.58-8.8-2.73-2.73-4.06-7.13-5.46-10.93-2.66-8.79.14-17.58 5.8-24.84 10.6-13.387 28.51-16.24 43.96-13.3 14.78 3.47 27.17 12.13 36.08 24.653 10.52 14.52 13.97 32.5 12.63 49.95-2.68 34.893-27.2 64.314-59.7 78.284-40.7 16.69-85.24 8.08-119.73-20.04-35-28.77-52.83-70.2-51.54-114.35 1.48-35.03 13.02-67.72 36.21-96.08C65.79 32.704 97.77 12.61 135.73 4.1c1.864-.4 3.73-.8 5.527-.6z" fill="#999"/>
  <path d="M143.678 3.8C113.908 9.58 86.93 22.95 62.88 42.72 35.434 65.746 17.44 96.505 9.298 131.396c-5.873 25.436-3.887 51.142 3.626 76.25 3.524 11.923 9.046 22.248 15.7 33.307 12.977 19.65 29.485 34.842 49.59 44.974 22.904 12.264 49.073 17.004 75.113 12.022 30.437-6.32 57.35-24.55 71.414-52.71 14.27-29.96 10.89-70.39-18.33-91.25-16.31-11.53-39.61-14.74-55.2-.1-2.8 3.33-6.26 7.19-7.4 11.91-1.4 7.12.2 14.58 6.39 18.91 2.87 1.53 6 .67 8.92 1.6 8.79 2.8 11.39 12.19 9.25 20.44-6 21.17-29.64 26.42-48.95 20.02-14.05-4.6-23.9-14.2-31.62-26.59-11.24-18.86-11.3-40.1-5.36-60.67 11.14-34.56 40.45-57.98 75.15-64.43 31.57-5.58 62.33 1.49 88.83 19.62 35.48 24.59 57.31 62.83 59.09 106.71 1.98 42.09-10.89 81.31-40.54 113.19-27.58 29.69-61.42 50.18-100.78 54.89 37.17-6.78 70.54-23.08 97.39-51.63 14.53-15.98 25.52-32.95 33.26-53.33 9.47-25.03 12.35-50.8 8.63-77.31-5.11-30.3-17.95-56.61-40.38-78.53-20.3-19.26-44.47-31.06-71.44-34.07-19.24-1.55-37.69.64-56.14 8.29-23.05 10.78-41.37 28.15-50.77 52.58-9.47 25.04-6.02 53.94 12.35 74.19 12.98 14.19 32.15 21.79 50.47 15.34 7.59-2.8 13.66-8.19 16.92-15.71 2.6-6.99.61-16.318-6.52-17.72-7.06-2-13.38-5.13-16.31-11.53-2.99-5.79-1.72-11.72.08-16.98 4.27-11.05 14.79-18.37 26.51-20.1 15.45-2.52 30.77 1.62 42.88 12.68 15.45 13.86 23.03 32.91 23.22 52.95-.2 7.26-1 14.45-3.07 22.11-4.8 15.85-13 29.497-25.25 41.477-21.72 20.64-49.36 29.08-78.4 28.27-45.28-2.02-85.29-29.55-106.72-71.38C2.5 192.51.12 154.02 13.52 115.47c9.2-28.1 23.93-51.335 46.116-70.705C83.2 23.75 111.376 10.51 141.88 3.6l1.798.2z" fill="#ccc"/>
  <path d="M134.555 3.995C112.043 9.978 91.062 18.56 71.81 33.4c-23.85 17.97-42.107 40.202-54.24 67.367-19.334 42.745-18.557 90.16 4.53 133.39 23.222 42.033 64.03 67.825 110.714 68.18 20.045-.19 38.16-4.843 56.346-15.557 19.517-11.778 33.443-27.82 41.845-48.727 7.867-21.572 7.945-44.014-3.032-65.263-7.52-14.188-18.502-24.516-33.616-30.45-12.25-4.4-25.57-4.674-37.692.65-11.457 4.788-19.186 14.24-21.723 26.094-.87 7.79 1.326 15.316 6.117 21.313 3.12 4.596 8.45 5.798 12.91 9.33 4.39 4.13 3.72 10.124.26 13.984s-8 6.39-13.06 8.26c-28.77 7.71-53.07-19.27-57.98-45.91-2.92-17.31.15-33.96 7.95-49.47 9.33-18.37 24.12-31.29 42.77-40.73 17.32-8.38 35.16-10.63 53.88-9.76 31.3 2.28 59.99 17.01 81.56 41.26 19.9 22.85 30.87 49.56 34.05 80.86 2.45 26.98-3.36 51.81-13.96 76.11-11.94 25.37-30.06 46.4-53.24 63.84-24.52 18.5-52.29 28.15-83.06 31.99-4.27.13-9.13.2-13.39.33 37.23-1.91 72.66-14.95 102.57-38.31 27.24-21.23 45.57-49.52 54.78-83.08 10.14-36.49 6.82-72.05-11.81-106.29-13.64-24.58-32.88-42.5-57.05-54.3-32.82-15.8-71.71-15.28-103.69 4.81-16.32 10.32-27.58 24.23-34.98 41.61-7.67 19.78-6.95 40.49 3.1 59.21 8.65 14.92 22.63 25.58 40.41 23.93 6.79-1.06 15.98-7.32 10.73-14.58-8.59-10.06-16.38-21.85-12.97-36.03 3.53-15.38 16.26-26.09 31.24-29.88 16.85-4.19 33.36.08 47.41 10.15 27.43 20.66 35.54 56.76 24.07 88.85-15.01 42.01-55.44 67.23-98.53 67.28-22.44-.08-43.62-6.08-63.06-16.75-26.83-15.13-46.07-38.51-58.04-67.15-9.96-24.78-12.48-51.16-9.54-77.53 3.74-28.1 16.4-54.6 32.93-77.63C62.47 35.4 96.18 10.64 134.54 4z" fill="#999"/>
  <path d="M135.754 4.13C85.27 16.09 40.768 50.565 18.37 99.035c-11.267 24.835-15.41 51.07-13.09 79.24 2.054 19.648 7.44 36.63 16.954 54.684 19.56 36.77 53.247 61.15 93.2 67.43 34.027 5.01 68.46-4.5 93.71-29.59 25.92-25.63 34.928-62.85 18.628-96.22-7.52-14.19-18.435-25.12-32.95-30.98-17.443-6.8-38.355-4.28-51.548 10.63-7.73 9.45-9.733 21.97-3.012 32.43 3.727 4.66 8.853 7.66 14.113 9.46 5.193 2.4 6.988 8.06 5.188 13.32-5.8 13.91-22.516 16.9-36.167 14.17-27.767-6.74-42.736-35.72-42.124-62.95.875-18.71 7.542-34.96 19.536-50 24.52-29.43 61.486-39.86 97.243-34.05 32.17 5.41 59.79 24.27 79.89 50.78 14.18 19.78 22.03 41.9 25.35 66.54 3.05 27.04-1.55 52.01-12.22 76.91-23.93 56.79-80.35 94.79-140.96 99.56 22.25-3.59 43.36-7.91 65.27-19.42 26.45-14.04 46.7-32.41 62.76-56.71 18.33-28.3 26.67-59.53 25.02-93.69-2.05-36.03-16.68-68-43.64-92.86-12.11-11.06-25.23-18.59-40.34-24.53-18.64-6.94-37.29-8.41-57-5.76-37.03 5.57-67.74 30.66-77.28 67.22-5.6 23.04-1.02 47.21 16.49 64.33 13.18 12.39 32.56 18.19 48.34 7.21 3.93-2.6 5.67-7.26 4.34-11.66-1.73-6.26-9.98-8.4-14.24-13.73-9.05-11.32-7.44-25.71 1.09-36.89 7.13-9.52 17.32-13.84 28.98-14.97 25.18-2.65 46.74 10.68 58.19 33.19 10.98 21.25 11.57 43.16 3.63 65.33-6.67 16.24-16.73 30.29-30.12 41.54-28.65 22.89-64.48 28.6-99.83 19.2-41.22-11.27-71.84-41.39-87.54-80.15C-.97 180 .58 138.91 16.91 101.29 38.767 52.17 83.6 14.695 135.75 4.13z" fill="#ccc"/>
  <path d="M131.558 3.66c-29.97 7.58-56.55 22.816-79.6 44.515-10.86 10.317-19.457 22.1-26.92 34.615-14.264 24.5-22.135 51.534-22.28 80.037.325 13.385 1.385 25.64 4.775 38.76 3.457 12.52 7.646 23.91 14.234 35.568 21.426 36.37 56.31 60.894 97.596 66.107 25.17 2.81 49.946-1.708 72.73-15.548 23.447-14.374 39.24-36.275 45.247-62.91 3.87-18.378 1.682-36.825-7.833-54.877-14.57-27.11-45.597-42.708-74.837-30.8-8.26 3.324-15.52 8.582-20.053 16.57-2.4 5.193-4.8 10.386-5.47 16.38-.87 7.79.793 14.65 4.852 21.778 3.59 5.862 10.78 12.126 6.38 18.917-8 6.39-18.65 3.986-27.31-.014-22.31-12.197-30.88-38.64-27.01-62.478 5.47-32.762 32.06-58.92 64.03-68.095 37.63-10.97 75.98-1.23 106.4 25.223 32.62 28.518 46.52 67.082 45.63 107.638-1.08 25.97-8.09 50.675-21.55 73.443-31.26 51.72-89.35 82.86-149.88 81.57l-10.79-1.21c50.68 2.62 101.03-13.61 137.47-52.01 22.79-24.76 37.52-53.46 41.73-85.76 3.81-28.7.89-56.94-13.61-84.65-19.57-36.77-53.18-61.76-93.34-66.24-8.39-.94-16.92-.67-25.51.19-35.77 5.11-67.47 28.27-76.28 63.69-5.41 21.24-1.36 44.75 16.49 58.87 5.59 4.26 16.44 10.33 21.57 2.41.86-2.33.6-5.4-.33-7.93-5.12-13.92-5.25-29.11 2.28-42.22 7.39-11.92 20.39-19.57 33.97-21.7 14.25-2.66 28.5.14 41.02 7.61 21.57 13.33 33.61 35.91 35.6 61.61 1.19 21.98-5.22 41.29-18.14 59.26-14.93 19.57-34.65 33.15-58.43 39.6-26.24 6.78-53.35 4.97-78.85-5.77-22.64-9.2-40.35-24.53-55.19-43.78-15.83-21.18-24.81-44.02-27.92-70.46-2.92-28.24.62-54.54 12.02-80.58 21.9-49.12 66-85.45 117.82-98.48-1.2-.14-.07.6-.74 1.13z" fill="#999"/>
  <path d="M132.158 3.728C109.114 9.044 88.53 19.49 69.345 33.732 45.495 51.7 27.17 74.532 15.57 102.365c-15.733 37.684-17.285 78.77-1.586 117.537 11.974 28.64 31.208 52.025 58.038 67.154 23.967 13.597 50.67 19.005 78.374 15.42 20.313-2.587 37.03-11.037 52.953-23.216 23.31-18.635 36.18-46.93 34.73-77.433-1.98-31.167-22.62-58.346-52.85-64.754-18.38-3.872-39.76 2.844-49.56 19.954-3.73 6.26-5.74 13.316-4.81 21.31 1.12 11.653 9.58 17.45 15.17 27.176 2.99 5.795-3.54 9.92-8 11.85-20.72 6.184-40.16-9.94-48.41-28.46-10.04-24.177-4.7-50.28 9.16-71.183 10.99-16.976 27.98-27.823 46.3-34.274 26.64-10.376 56.01-7.1 82.04 4.3 19.64 8.867 35.08 22.725 48.4 39.38 18.57 23.917 26.28 52.69 26.6 82.457.72 26.172-6.35 51.475-18.62 74.377-29.66 53.728-89.21 87.13-150.35 85.77 22.37.675 44.22-4.774 65.73-12.69 27.24-10.308 48.49-26.747 67.41-49.513 22.39-26.627 33.06-56.99 35.47-89.485 1.41-23.507-2.71-46.418-13.55-68.865-14.9-29.575-36.74-51.427-67.56-63.363-26.24-9.603-52.81-10.747-78.85-.304-29.83 11.84-53.42 38.333-55.84 70.83-.68 16.916 2.85 34.297 15.96 47.29 9.38 8.33 21.37 15.126 33.49 9.805 3.86-1.996 4.93-6.125 2.93-9.988-3.99-7.727-8.78-13.723-10.25-22.38-2.39-16.65 5.88-30.897 20.2-39.614 23.32-13.174 51.15-7.035 69.65 12.02 15.78 16.324 22.49 37.704 21.29 59.412-1.68 25.905-14.15 50.605-35.4 67.044-19.92 15.37-43.37 24.28-68.87 24.47-28.51-.15-54.81-9.15-77.77-26.28-20.1-15.59-34.34-34.78-43.92-57.69-15.69-38.77-14.14-79.86 1.66-118.14 12.16-27.16 29.89-50.06 53.8-68.63 19.18-14.24 40.29-24.02 62.87-30.6-.07.6-.07.6.53.66z" fill="#ccc"/>
  <path d="M132.958 1.997C95.46 11.767 62.354 31.13 36.966 62.885 14.31 91.91 1.576 124.468 1.16 160.827c-.086 38.825 12.75 76.057 40.437 105.24 32.15 32.712 78.426 47.584 122.184 36.084 23.18-6.51 44.03-19.35 59.03-39.52 12.26-17.44 19.33-37.28 18.74-59.19-1.45-25.04-13.36-48.82-34.93-62.15-10.25-5.99-21.37-9.66-33.49-9.8-20.64.13-40.76 11.84-47.89 32.28-2.66 7.6-2.87 14.85-1.94 22.85 1.13 6.2 5.19 13.32.39 18.25-3.39 3.27-8.59.86-12.65-.8-5.12-3-8.92-7.06-12.65-11.72-10.38-15.72-11.97-34.1-6.3-52.28 7.47-23.43 23.2-39.28 44.44-50.25 19.25-9.38 39.43-10.77 59.81-8.5 28.7 3.81 54.27 19.4 73.57 42.19 14.44 17.39 23.16 37.17 28.01 58.95 5.25 23.65 2.57 47.62-4.3 71.12-11.07 39.42-36.33 69.98-72.03 90.87-38.97 22.96-82.99 31.39-125.41 19.99 62.26 13.02 129-8.66 170.58-60.45 19.79-25.1 29.73-54.33 31.94-85.02 1.88-27.7-4.3-53.87-18.54-78.52-10.78-17.58-24.49-30.64-40.87-41.57-21.5-13.93-47-19.2-72.84-16.02-26.5 3.72-49.95 18.09-64.01 40.8-9.73 16.51-13.14 36.15-6.09 54.53 2.93 6.4 6.46 12.86 13.51 14.86 3.53 1 5.2-3.06 5.53-6.05 2.34-15.512 5.95-31.494 18.14-42.874 22.39-21.17 56.22-19.82 79.65-1.43 17.25 14.06 27.36 32.17 29.75 54.29 2.52 26.37-5.02 50.41-21.88 70.97-23.78 28.296-57.35 40.93-92.38 39.45-22.91-1.34-44.61-8.01-63.85-20.47-25.97-17.47-45.07-42.05-55.71-71.76C-7.59 169-.11 118.26 26.35 76.916 51.3 37.783 91.4 10.1 136.82 0c-1.797-.2-2.53.932-3.862 1.997z" fill="#999"/>
  <path d="M132.292 2.53C73.615 17.217 24.448 60.88 7.438 120.873-3.636 160.29-.258 200.716 20.568 237.02c15.837 26.645 37.27 46.633 65.634 58.9 15.646 6.6 31.095 9.54 48.076 9.612 43.686.02 85.32-25.065 100.922-67.013 8.003-22.77 8.813-46.35-3.297-68.33-8.65-14.92-20.165-25.92-35.146-33.05-23.103-10.47-52.407-3.42-66.403 18.68-8.198 13.64-5.808 30.29-.155 44.88 1.39 3.79-.87 7.79-4.6 8.59-9.93 1.92-18.31-4.47-24.84-11.27-8.59-10.06-12.65-22.65-12.97-36.04-.39-18.25 6.34-35.09 18.87-49.47 12.59-14.98 27.65-24.83 45.76-29.48 16.85-4.19 33.9-4.71 51.08-.98 29.56 6.94 54.99 23.73 72.83 48.78 9.31 14.38 16.17 29.11 20.42 45.36 6.98 29.9 5.43 60.07-6.31 89.1-13.27 31.89-34.32 57.45-63.77 76.62-32.05 20.69-68.08 28.2-104.97 27.12-3.6-.4-6.6-.74-10.13-1.74 50.28 6.22 101.76-9.27 139.14-45.15 24.38-22.76 40.85-50.66 46.85-82.76 6.2-33.9 1.56-68.39-16.81-99.57-10.71-18.18-24.96-31.91-41.94-42.91-26.1-16.26-58.33-21.07-87.83-12.23-16.98 5.38-31.91 14.04-43.83 28.48-13.46 17.31-20.59 37.75-16.34 59.46 3.32 13.72 11.84 29.84 27.49 30.98 4.19.47 5.33-4.26 5.06-7.32-.86-8.59-2.39-16.65-.85-24.97 2.47-11.25 7.87-21.57 17.2-29.03 14.65-11.72 33.7-13.84 51.35-8.84 19.97 5.87 34.22 19.6 42.46 38.11 10.85 22.45 11.17 46.75 1.97 69.39-13.2 31.29-39.98 53.79-72.42 61.7-38.03 9.1-77.12.49-108.87-24.9-25.03-20.39-41.47-47.1-48.98-77.67C-4.12 159 2.42 116.65 24.68 80.3 49.14 40.55 88.64 12.8 133.6 1.43l-1.33 1.07z" fill="#ccc"/>
  <path d="M159.386 144.177c21.246 2.372 36.545 21.517 34.175 42.764s-21.51 36.55-42.76 34.18-36.55-21.51-34.17-42.76 21.52-36.55 42.77-34.18z" fill="#999" stroke="#ccc" stroke-width="2"/>
  <path d="M145.404 185.255c6.71.75 11.54 6.796 10.792 13.505s-6.794 11.542-13.504 10.792-11.542-6.794-10.793-13.504 6.79-11.542 13.5-10.793z" fill="#fff" stroke="#ccc" stroke-width="2"/>
</svg>
