<?xml version="1.0" encoding="UTF-8"?>
<!DOCTYPE svg PUBLIC "-//W3C//DTD SVG 1.0//EN" "http://www.w3.org/TR/2001/REC-SVG-20010904/DTD/svg10.dtd" [
<!ENTITY ns_flows "http://ns.adobe.com/Flows/1.0/">
<!ENTITY ns_extend "http://ns.adobe.com/Extensibility/1.0/">
<!ENTITY ns_ai "http://ns.adobe.com/AdobeIllustrator/10.0/">
<!ENTITY ns_graphs "http://ns.adobe.com/Graphs/1.0/">
<!ENTITY ns_vars "http://ns.adobe.com/Variables/1.0/">
<!ENTITY ns_imrep "http://ns.adobe.com/ImageReplacement/1.0/">
<!ENTITY ns_sfw "http://ns.adobe.com/SaveForWeb/1.0/">
<!ENTITY ns_custom "http://ns.adobe.com/GenericCustomNamespace/1.0/">
<!ENTITY ns_adobe_xpath "http://ns.adobe.com/XPath/1.0/">
<!ENTITY ns_svg "http://www.w3.org/2000/svg">
<!ENTITY ns_xlink "http://www.w3.org/1999/xlink">
]>
<svg enable-background="new 0 0 330.635 373.146" viewBox="0 0 330.635 373.146" xml:space="preserve" xmlns="http://www.w3.org/2000/svg"><defs></defs>
	
	
		
		
			
				<g opacity=".43">
					
						<path d="m326.411,92.628c-17.742-23.697-41.073-41.86-68.289-54.352-31.329-14.538-65.329-17.316-100.022-11.595-64.288,11.861-115.69,64.99-118.098,131.108-.705,24.329 5.209,46.204 17.602,67.324 12.853,20.73 31.751,35.538 54.604,43.822 21.224,7.295 42.751,5.632 63.204-3.82 15.145-7.319 27.305-20.017 31.244-36.809 1.476-7.58 3.297-19.411-6.305-22.334-7.607,4.084-12.941,11.778-19.768,16.782-17.261,12.28-39.5,12.175-57.436,1.297-18.325-11.337-27.917-30.09-29.581-51.618-2.573-36.576 20.006-66.818 52.385-80.857 41.227-17.596 89.511-6.378 120.298,25.23 19.723,20.437 32.229,45.417 36.207,75.263 5.305,39.793-5.331,75.718-30.529,106.603-12.9,16.486-26.83,29.894-45.652,40.336-19.741,11.222-39.457,16.885-61.973,20.179-39.794,5.306-77.626-2.92-111.087-22.768 8.751,2.854 16.053,7.729 24.345,10.974 14.952,5.501 29.194,9.231 45.274,11.4 15.3,1.249 29.429,1.122 45.007-1.028 43.724-6.268 79.667-27.289 106.063-62.354 15.865-21.379 24.609-44.624 27.613-70.903 4.184-40.731-8.382-80.689-38.598-108.829-29.046-26.759-70.46-38.272-107.869-25.499-23.324,7.934-42.172,23.935-52.546,46.191-5.752,12.792-7.713,26.322-5.885,40.591 2.401,17.737 10.961,33.411 26.417,43.23 11.804,7.381 26.115,10.262 39.672,6.665 7.009-1.996 13.306-5.759 18.432-10.901 5.587-5.533 8.301-12.585 11.866-19.566 1.979-3.262 4.025-7.373 8.205-6.176 9.923,4.234 12.351,16.411 11.978,26.221-.956,22.17-15.234,39.828-34.906,50.199-26.29,12.826-56.109,11.246-81.556-1.957-42.211-22.703-63.892-71.534-56.993-119.316 6.969-48.631 37.961-87.599 82.405-107.926 37.366-17.483 78.192-19.709 118.619-6.566 35.004,11.416 66.305,31.514 85.653,61.759z" fill="#999"></path>
						<path d="m330.635,98.536c-25.342-35.441-61.785-60.666-105.888-70.687-33.192-7.418-65.519-4.498-96.058,7.981-22.153,9.314-40.793,22.765-56.91,41.984-17.175,21.7-28.08,45.194-30.761,72.785-1.945,23.799 2.199,46.385 13.282,67.827 9.591,18.752 24.31,32.362 41.855,42.78 22.116,12.076 48.787,15.537 72.709,5.512 10.617-4.266 19.672-10.372 26.846-19.625 4.875-7.303 8.51-15.135 9.664-24.024 .277-3.4-.754-6.479-2.246-9.168-1.561-1.839-4.501-2.507-6.8-.555-8.665,6.564-16.479,13.199-26.638,17.075-16.706,5.48-34.485,3.172-49.481-7.038-27.12-18.902-33.623-54.515-21.772-84.351 12.839-31.466 40.994-51.413 75.16-55.895 25.456-2.626 48.588,2.259 69.785,15.115 28.498,17.73 48.905,45.496 56.926,78.238 4.101,17.875 5.652,35.544 2.424,54.105-5.093,25.682-13.836,48.925-30.943,69.775-13.748,16.417-28.068,29.366-47.74,39.738-26.43,14.525-53.543,21.723-83.431,20.992-32.438-.938-62.622-8.539-89.491-25.28 21.727,11.614 44.19,19.439 69.091,23.612 15.23,2.102 29.429,1.122 45.397-.568 37.175-4.663 68.452-20.933 94.015-45.798 23.264-22.913 37.664-52.541 42.922-85.48 4.2-30.461-1.617-58.746-16.993-85.245-10.831-19.281-26.33-33.81-45.115-44.757-17.225-9.109-35.647-14.037-56.187-14.003-18.379-.219-34.693,5.722-49.587,15.201-29.256,17.717-46.093,50.996-38.992,84.52 3.711,17.416 14.109,31.529 29.174,40.889 11.875,6.531 25.794,8.953 38.891,5.744 12.708-3.668 22.361-11.863 30.524-22.748 2.367-2.802 5.195-5.993 8.457-4.016 3.721,1.587 5.533,5.586 6.035,9.905 2.236,24.999-15.189,44.538-36.492,53.92-24.842,10.805-53.742,8.444-77.029-5.01-10.173-6.393-20.278-13.636-28.083-22.831-14.37-17.859-23.823-38.312-26.978-62.528-4.456-39.725 9.58-75.372 35.03-104.096 25.841-28.264 58.428-44.854 98.083-48.459 63.799-5.91 123.445,23.349 157.345,74.464z" fill="#ccc"></path>
					
					
						<path d="m312.5,74.379c-15.818-15.839-34.467-28.486-55.091-37.872-32.638-14.218-67.807-18.375-102.64-10.954-25.735,6.027-48.485,17.43-68.253,34.211-22.067,18.733-37.36,43.582-44.891,72.914-6.013,26.462-4.236,51.85 5.719,76.622 6.721,17.235 17.51,31.807 31.906,44.107 18.44,15.197 40.442,23.413 64.911,22.417 31.728-.831 62.294-18.869 69.252-51.671 1.016-7.19 1.571-13.99-.423-20.998-1.423-3.54-2.386-7.469-5.117-10.687-3.512-4.136-10.426-8.553-14.311-2.881-.529,1.241-1.52,2.872-2.047,4.112-4.789,16.722-16.171,30.337-33.518,33.199-20.816,3.433-39.602-7.514-51.102-23.855-9.158-13.583-12.157-29.23-9.988-45.311 4.729-31.701 27.742-56.774 57.684-67.163 27.252-8.897 56.542-6.075 81.989,7.127 29.168,14.789 50.033,42.164 59.895,73.346 8.688,29.802 7.497,60.082-3.894,89.527-5.292,12.402-11.294,23.035-19.067,34.38-8.162,10.884-17.494,20.389-27.609,28.975-10.964,8.517-23.099,15.654-36.014,21.872-20.383,8.603-41.268,12.887-64.037,14.021-31.657-.02-61.45-7.16-88.849-22.662 .459-.389.459-.389.069-.85 33.99,18.606 71.433,26.373 111.294,20.217 35.545-5.652 66.754-21.071 91.536-46.855 13.608-14.717 23.889-30.563 31.436-49.626 8.743-23.245 11.929-46.515 7.993-71.65-4.968-28.214-17.541-52.346-38.184-72.001-21.881-20.185-49.695-30.586-80.184-29.226-21.917,1.204-41.451,9.876-57.15,23.994-15.77,14.97-25.936,34.675-24.801,57.443 .449,15.438 6.598,29.203 15.965,40.236 9.826,10.643 24.318,16.534 39.437,14.773 11.257-1.647 20.313-7.752 26.248-17.535 4.023-7.373 3.41-15.551 4.104-24.052 .807-4.641 4.875-7.303 9.125-6.956 9.74,1.224 16.374,9.039 20.39,17.496 8.603,20.383 2.478,42.986-12.12,59.334-14.14,15.958-31.903,23.919-53.041,26.042-26.307,2.557-48.701-6.118-69.229-21.914-20.138-15.336-32.531-36.457-39.156-60.101-10.084-38.901-2.111-78.894 21.987-112.006 11.519-15.316 24.53-27.944 40.802-38.594 23.419-14.344 48.053-22.6 75.989-24.167 51.097-2.241 100.064,16.306 132.985,53.222z" fill="#999"></path>
						<path d="m316.403,78.977c-14.898-16.619-33.546-29.266-53.642-39.893-25.517-12.353-52.438-17.975-82.075-16.546-27.087,1.637-50.8,9.112-73.761,23.066-21.58,12.782-37.558,30.301-49.954,51.108-14.304,23.217-20.247,48.83-17.899,77.686 2.236,24.997 11.62,46.299 27.23,64.688s37.198,31.705 61.709,35.418c29.611,4.131 61.321-6.968 76.753-33.517 5.474-9.393 9.387-20.625 7.35-32.343-1.214-6.089-3.668-12.707-8.951-16.133-2.48-1.059-5.49-.876-7.396,1.534-4.348,6.063-6.603,12.723-11.407,19.176-5.726,7.234-13.333,11.318-22.11,14.024-15.786,4.7-32.829-1.399-45.665-11.86-11.595-9.933-17.745-23.697-20.353-38.884-1.829-14.269.521-27.339 6.274-40.131 7.937-18.604 22.787-32.793 41.47-41.534 30.357-15.488 64.816-13.101 93.915,2.54 23.747,13.063 42.229,32.97 53.425,58.271 12.687,27.99 14.575,57.237 6.975,87.419-12.066,48.215-44.941,84.034-88.857,103.121-49.683,21.61-106.633,16.957-153.276-9.102 14.883,6.351 28.387,13.871 44.788,17.351 22.742,4.426 43.921,7.012 67.357,2.937 36.004-6.042 67.672-21.853 92.453-47.636 26.691-28.196 42.427-63.704 40.982-103.61-1.403-35.197-14.203-67.047-40.057-90.978-18.689-17.358-41.864-26.952-66.904-29.426-22.561-1.415-43.974,4.108-62.545,16.709-18.641,13.452-31.748,32.488-34.933,55.759-1.71,15.69 1.681,31.797 10.448,44.92 7.667,10.895 17.702,18.987 31.093,22.648 4.64.807 8.891,1.154 13.599,1.111 6.021-.364 11.718-2.037 17.095-5.02 11.677-6.748 18.529-17.312 20.881-30.382 .736-3.79 3.244-8.292 7.885-7.485 6.339.946 10.172,6.393 13.156,11.771 5.828,12.455 4.716,26.055-.576,38.458-11.043,25.196-34.99,40.779-62.928,42.348-20.148.492-38.709-2.734-55.796-13.543-7.303-4.875-14.145-10.141-20.528-15.796-20.962-20.965-31.949-48.816-33.769-78.913-1.039-29.178 7.064-55.042 22.289-79.04 17.591-26.798 42.667-45.714 72.678-56.952 63.17-24.357 138.948-4.047 183.577,46.661z" fill="#ccc"></path>
					
					
						<path d="m299.483,60.909c-39.68-32.762-92.004-46.878-143.724-36.986-20.037,4.354-37.731,11.464-54.921,22.895-25.398,17.604-45.722,41.186-56.722,71.091-17.767,49.889-5.74,106.917 37.728,140.417 29.393,22.509 68.283,28.254 101.01,9.964 18.362-10.05 32.11-26.469 35.547-47.58 3.297-19.41-4.889-44.894-26.919-47.549-5.949-.486-9.308,3.945-8.943,9.965 1.647,11.258-.104,22.239-8.45,30.114-14.39,13.799-37.409,12.773-52.656.404-11.206-9.472-18.802-21.217-21.021-35.944-2.974-21.208 2.483-40.869 15.842-57.747 16.576-19.61 38.868-30.624 65.105-32.33 30.098-1.82 57.451,8.972 79.332,29.157 20.252,19.195 33.677,43.396 38.186,72.001 3.936,25.136.75,48.405-7.993,71.65-17.421,45.638-55.967,77.571-102.015,91.35-28.953,8.758-57.671,9.405-88.244,1.347-15.482-4.26-29.584-9.69-43.548-16.821l-2.341-2.758c45.334,26.378 101.433,30.962 150.978,11.052 19.074-8.282 35.805-19.321 50.655-33.511 18.206-18.619 31.452-39.357 38.315-65.75 7.99-29.724 6.031-58.121-5.415-85.581-12.618-28.84-34.681-52.036-64.517-63.885-32.775-12.519-70.8-7.924-97.074,15.171-22.136,19.583-32.495,52.107-20.268,80.487 8.031,16.914 24.978,29.422 45.265,27.229 7.329-.684 13.167-4.058 18.292-9.202 2.828-3.191 4.875-7.302 5.683-11.942 1.016-7.19-2.818-12.637-4.422-19.186-.643-2.62.416-5.101 1.865-7.121 6.115-6.774 15.926-6.4 23.366-3.226 21.474,9.457 28.81,34.87 23.146,57.083-8.59,31.813-35.365,50.589-67.371,54.819-27.226,3.337-51.849-4.236-73.549-21.412-16.487-12.897-27.597-28.78-35.488-47.394-8.993-20.842-10.657-42.371-8.391-64.86 5.771-44.451 32.305-81.215 70.548-104.188 61.592-36.466 141.352-28.237 193.129,18.777z" fill="#999"></path>
						<path d="m303.065,64.197c-28.404-24.141-63.131-38.958-100.92-42.474-34.391-3.237-67.134,4.783-96.85,22.891-31.555,19.67-54.386,47.752-64.311,85.446-9.466,37.304-3.102,74.618 18.406,104.612 22.288,30.913 60.597,49.017 98.83,41.874 25.206-4.786 45.754-20.648 55.809-44.212 7.018-17.825 4.963-39.811-10.673-52.64-5.604-4.736-16.653-5.64-17.807,3.251-1.225,9.74-.748,19.619-7.393,27.633-6.185,7.624-14.252,12.099-24.2,13.425-21.596,2.514-39.394-10.063-48.594-28.357-16.13-32.977-1.816-72.024 27.189-91.9 18.111-12.212 39.136-18.194 61.695-16.779 14.909.791 28.231,5.302 41.414,11.513 24.276,11.823 41.839,32.511 53.494,57.422 10.233,21.373 13.918,44.349 11.123,68.078-3.949,32.62-17.43,61.467-39.912,85.3-24.783,25.784-55.6,41.663-91.996,47.245-39.402,5.767-78.154-1.679-111.685-20.677 46.323,24.748 102.353,30.183 151.646,8.112 19.074-8.282 36.195-18.861 50.725-34.359 13.15-14.328 24.279-30.104 31.367-48.778 8.744-23.244 11.929-46.515 7.993-71.65-4.578-27.756-16.692-52.276-37.334-71.931-18.3-16.897-41.015-26.883-66.056-29.356-22.099-1.806-43.124,4.177-61.234,16.388-15.422,10.719-26.023,25.256-31.411,44.068-4.537,18.881-2.595,37.008 8.514,52.89 8.837,12.274 21.882,20.185 36.792,20.976 9.81.374 19.505-3.113 26.082-10.277 3.287-3.582 5.335-7.692 6.992-12.264 1.404-6.729-.199-13.279-.493-20.148 .096-6.409 6.714-8.864 12.204-7.987 18.561,3.228 27.302,21.911 27.153,39.439-.132,27.799-18.687,50.669-43.067,61.083-18.154,7.502-37.132,9.373-56.864,4.767-23.061-5.735-41.708-18.383-56.148-35.393-28.099-33.099-34.619-78.982-20.486-121.039 8.354-23.704 21.92-43.131 39.989-60.051 14.78-13.339 31.833-23.069 50.768-29.651 56.94-21.445 124.245-7.39 169.249,33.51z" fill="#ccc"></path>
					
					
						<path d="m288.737,51.046c-25.56-17.063-53.374-27.464-84.295-31.274-28.83-3.21-55.805,2.286-82.415,13.802-18.224,8.352-34.105,19.461-48.565,34.109-16.897,18.299-28.833,38.716-35.167,63.869-2.672,11.761-3.965,22.351-4.088,34.32 .761,32.577 13.24,63.117 36.223,85.531 16.669,15.907 37.224,26.145 60.495,29.329 16.539,1.779 32.118-.37 47.192-6.839 13.305-5.759 23.879-14.735 32.111-26.469 15.267-19.289 17.948-46.879 3.396-67.749-6.886-9.974-17.909-16.437-30.867-14.929-7.788,1.075-16.063,8.101-11.589,16.166 3.304,6.688 4.908,13.236 3.043,20.357-1.796,6.271-6.393,10.173-12.231,13.547-18.753,9.591-39.697-1.105-50.347-17.377-9.869-15.353-11.352-33.871-6.033-51.833 8.563-26.253 29.319-44.665 54.733-52.001 21.483-6.374 44.044-4.958 65.196,3.188 29.446,11.391 51.051,34.976 63.668,63.815 10.598,27.392 12.555,55.788 4.564,85.513-9.117,33.053-27.49,58.934-53.877,78.168-28.293,21.647-62.164,32.998-98.922,32.562-32.048-.479-61.771-8.47-88.641-25.211-1.63-.988-2.41-1.909-3.581-3.288 31.76,19.709 67.686,30.345 107.34,26.74 42.665-3.788 79.641-21.73 107.068-53.716 28.347-32.766 39.469-74.641 31.433-117.653-6.391-31.753-24.316-58.459-51.116-76.051-15.455-9.82-32.567-15.069-51.727-16.207-16.61-.93-32.326,2.92-47.08,10.699-24.59,12.965-40.273,37.354-39.097,64.832 .59,13.739 4.717,26.055 14.222,35.388 8.334,7.954 19.427,13.566 31.605,11.139 6.939-1.145 11.997-5.438 15.882-11.109 4.025-7.373-2.288-13.878-4.742-20.496-3.876-10.157 5.917-20.052 16.324-21.769 9.559-1.786 19.16,1.137 26.853,6.472 10.494,7.703 16.071,17.999 18.888,30.636 5.107,26.515-7.705,52.42-28.252,68.284-9.126,6.956-20.202,11.611-31.6,14.959-26.194,6.416-53.966.725-77.184-13.58-17.476-11.269-30.814-26.049-40.406-44.801-15.809-31.667-18.2-65.234-7.704-99.459 12.545-38.335 37.995-67.059 73.8-86.381 33.117-17.83 68.062-21.392 104.402-15.856 23.201,4.035 43.896,12.571 63.853,24.897 2.873,1.519 4.825,3.818 7.235,5.726z" fill="#999"></path>
						<path d="m291.539,53.415c-24.71-16.994-52.386-29.095-83.765-32.515-14.451-1.18-27.66-1.832-42.389.387-13.877,2.289-26.974,5.497-39.429,11.325-30.15,12.939-55.365,33.554-72.246,62.123-14.903,25.308-21.514,53.86-17.994,84.096 4.23,32.005 17.906,58.363 43.187,78.827 21.31,16.715 45.014,25.069 72.63,22.192 22.447-2.445 41.981-11.117 55.868-29.234 7.242-10.104 12.785-20.347 14.217-32.638 1.572-13.99-1.106-28.327-10.473-39.36-7.416-8.735-19.68-15.727-31.285-9.829-3.078,1.032-6.228,2.913-6.574,7.164 .042,4.71 2.635,9.628 3.988,14.016 2.106,10.869-3.826,20.652-13.663,25.837-9.376,4.797-19.646,4.812-29.637,1.43-14.952-5.5-25.031-18.303-29.799-33.239-7.726-25.874 2.746-54.539 23.042-72.56 29.951-26.217 75.097-28.946 110.327-9.811 22.896,12.994 40.527,32.832 51.333,57.674 8.924,21.692 13.068,44.278 9.423,67.939-3.228,18.562-8.477,35.674-17.975,52.438-13.063,23.747-32.052,41.448-55.471,55.792-32.335,18.749-67.489,24.861-104.36,20.565-24.511-3.715-47.434-11.148-67.781-23.935 50.616,29.805 114.826,34.624 168.671,3.94 29.578-16.407 52.452-39.781 65.681-70.787 11.711-28.135 14.992-57.816 7.544-87.089-4.7-15.785-11.17-30.861-20.787-44.054-12.419-15.561-27.597-28.78-47.511-36.397-28.595-11.321-60.322-10.49-86.89,5.736-15.352,9.869-27.123,23.025-32.902,41.378-4.65,15.022-4.98,29.542 1.099,44.156 7.64,16.455 23.208,30.134 43.035,28.331 9.948-1.326 18.085-6.65 22.248-15.723 2.716-7.051.722-14.06-3.893-20.426-3.053-4.528.053-11.119 4.582-14.172 11.674-6.747 25.914-3.017 35.029,5.857 8.726,8.414 13.842,19.1 14.96,31.598 1.413,19.368-5.926,35.882-17.767,49.888-24.46,27.094-64.394,34.1-98.41,21.053-22.783-9.136-42.072-24.402-54.856-45.982-17.717-29.257-22.338-61.722-14.85-95.764 6.333-25.153 17.029-46.098 34.386-64.788 23.403-24.614 52.98-41.022 87.284-47.203 47.263-7.69 94.697,3.459 132.173,31.764z" fill="#ccc"></path>
					
					
						<path d="m280.333,43.942c-26.549-15.432-55.282-25.053-86.871-25.923-29.038-.661-55.691,6.146-81.982,18.972-18.292,9.202-32.613,22.15-46.292,37.718-20.394,24.432-31.255,52.636-32.583,84.615-.619,33.749 10.021,65.85 33.715,90.033 19.722,20.435 46.018,33.708 75.058,34.369 32.048.48 62.016-15.469 77.126-43.327 7.521-13.503 10.081-29.124 6.62-44.381-3.528-14.407-11.906-27.071-25.479-33.742s-32.55-4.798-38.9,10.084c-1.128,3.331-1.865,7.121-.443,10.66 2.913,6.228 8.837,12.273 5.272,19.255-6.463,11.024-20.341,13.313-31.503,8.55-10.312-4.693-18.256-12.188-22.983-22.414-7.25-15.994-6.251-33.453.168-49.187 8.467-19.844 25.547-35.134 45.791-42.037s41.703-7.716 62.925-.42c23.704,8.354 42.992,23.62 56.695,44.421 18.637,28.476 24.498,61.47 17.859,95.581-6.43,31.563-22.779,58.892-46.295,79.646-25.814,22.705-57.664,35.504-93.851,38.537-39.195,3.215-75.12-7.422-107.27-27.59-3.261-1.977-5.213-4.275-8.014-6.644 19.037,13.107 38.353,22.813 62.265,28.617 42.793,10.342 84.219,6.026 122.001-16.557 22.5-13.563 40.177-30.943 53.562-53.381 14.904-25.308 21.055-53.471 17.996-84.096-6.216-54.842-48.321-99.782-103.779-101.746-40.548-1.174-81.827,27.54-82.359,70.707 .103,19.689 11.255,40.281 31.976,43.257 7.649.625 17.806-3.251 16.341-11.5-.824-5.629-3.026-10.087-3.85-15.716-.113-3.86 1.935-7.971 3.521-11.691 4.094-8.222 12.161-12.697 21.26-14.093 16.888-2.471 31.883,7.739 41.111,20.472 8.376,12.664 11.446,27.461 9.347,42.691-2.31,17.781-12.127,33.236-25.07,45.012-25.883,23.556-63.907,28.149-97.143,16.021-41.066-15.762-67.579-52.583-73.388-96.696-5.739-44.963 9.704-87.34 40.921-118.588 25.103-24.475 55.92-40.353 92.244-45.086 39.335-4.915 76.388,2.391 109.849,22.238 1.631.991 3.262,1.98 4.432,3.359z" fill="#999"></path>
						<path d="m281.894,45.781c-25.628-16.212-54.432-24.983-85.491-27.093-35.77-2.067-69.961,7.975-99.816,27.783-21.719,14.483-37.905,34.552-49.659,57.977-5.613,11.093-8.676,22.394-11.418,35.006-4.034,23.2-2.439,45.578 5.243,66.742 8.255,24.633 24.049,46.032 46.416,60.266 26.479,16.282 58.57,21.471 88.121,10.622 30.931-12.018 56.199-43.752 49.236-78.975-3.962-19.577-18.723-37.896-40.111-37.933-4.32.503-9.488.937-13.558,3.599-5.907,4.223-9.862,10.746-8.327,18.144 1.032,3.079 3.902,4.597 5.394,7.287 4.476,8.065-.079,16.679-7.295,21.223-18.892,11.291-39.698-1.104-49.359-19.008-7.068-12.984-7.656-26.722-4.776-41.034 4.747-21.431 19.276-36.93 37.707-47.83 31.807-17.509 69.208-14.455 98.877,4.656 26.799,17.591 44.335,43.838 51.184,75.201 8.957,42.232-1.384,85.026-30.191,118.183-27.428,31.984-63.693,51.696-107.138,54.564-40.435,2.686-79.118-5.608-110.992-29.177 31.692,20.559 67.155,31.585 106.282,29.221 21.527-1.665 41.173-6.477 60.775-15.998 24.062-11.726 43.83-28.507 59.305-50.345 17.063-25.56 25.764-53.514 24.475-84.851-1.568-27.937-11.064-53.099-28.626-73.786-12.949-14.321-27.875-25.381-46.548-32.468-24.164-7.964-49.412-7.888-73.014,3.447-24.061,11.724-41.375,35.124-41.896,62.462-.289,19.229 8.454,37.912 26.208,45.78 7.441,3.175 15.551,3.41 23.088.176 6.688-3.305 11.632-11.457 7.409-17.364-3.764-6.297-6.218-12.916-3.962-19.576 1.795-6.271 6.783-9.714 11.701-12.307 10.687-5.116 23.366-3.225 33.079,3.558 12.976,8.761 21.284,22.275 22.515,38.633 1.732,20.678-5.814,39.741-19.424,54.459-5.127,5.144-10.644,9.826-17.4,13.979-14.363,8.24-29.69,12.549-46.828,12.86-29.958.119-55.865-12.694-76.437-33.199-31.569-32.528-41.81-79.998-28.709-125.133 11.764-39.255 36.432-68.899 72.628-87.761 25.969-14.136 52.623-20.942 82.052-19.822 31.589.87 61.172,10.561 88.111,26.452l1.169,1.38z" fill="#ccc"></path>
					
					
						<path d="m275.121,39.666c-20.485-11.086-41.64-19.232-65.829-21.636-29.681-3.281-58.216.376-85.677,11.824-43.386,17.846-75.342,52.885-88.191,100.18-11.929,46.515.08,93.274 33.809,125.55 14.718,13.609 31.092,22.649 51.674,27.325 22.281,4.814 43.418,2.692 63.873-6.76 20.52-10.303 35.969-26.581 42.555-49.574 4.26-15.482 3.35-30.531-3.579-45.216-5.897-11.605-15.403-20.939-27.875-25.379-11.622-4.373-23.729-2.795-33.706,4.091-5.976,5.073-9.541,12.055-10.166,19.705-.876,5.489 2.176,10.018 3,15.646 .364,6.02-4.234,9.922-9.403,10.355s-10.2-.833-15.161-2.95c-26.227-14.123-25.401-50.42-10.707-73.179 9.75-14.605 23.402-24.613 39.718-30.553 19.395-6.972 39.015-6.225 59.065-.308 18.354,5.777 32.889,16.378 45.906,29.849 21.214,23.125 31.993,53.526 31.055,85.965-1.191,30.278-11.523,57.242-30.676,82.204-16.717,21.309-37.976,35.401-62.356,45.816-26.083,10.276-53.698,13.152-82.528,9.942-30.53-3.35-57.356-15.382-82.386-33.685-3.192-2.828-6.774-6.116-9.965-8.943 28.404,24.14 63.131,38.957 100.921,42.473 34.39,3.238 67.132-4.783 96.849-22.892 32.405-19.6 54.387-47.751 64.311-85.445 6.932-27.243 5.225-53.48-4.271-78.643-13.049-34.008-41.704-60.308-78.757-67.614-18.951-3.688-36.688-1.286-53.992,6.284-19.143,9.132-32.823,24.7-38.349,45.211-3.938,16.792-1.079,34.14 12.998,45.13 5.672,3.886 16.652,5.639 17.808-3.251 .651-13.209 3.071-27.13 15.276-35.118 13.124-8.768 29.733-7.838 43.237-.317 15.135,8.509 24.223,22.941 27.543,39.899 5.793,33.844-13.066,65.674-43.424,81.163-39.735,20.284-86.458,10.904-117.844-18.614-16.279-15.448-27.57-34.34-34.403-55.434-9.148-29.412-7.107-59.621 3.823-88.676 9.732-24.874 25.988-45.793 46.216-62.965 21.997-17.883 49.388-28.48 77.213-33.908 38.413-4.133 79.923.97 112.395,22.448z" fill="#999"></path>
						<path d="m275.902,40.585c-44.944-25.92-100.974-31.354-150.518-11.443-25.232,10.347-46.24,26.599-63.874,48.688-11.979,15.707-19.708,31.76-25.166,51.423-10.983,40.174-3.197,81.026 21.571,112.998 21.327,26.984 52.905,43.683 88.491,42.74 36.438-.873 68.522-21.782 79.55-57.247 4.259-15.481 3.81-30.92-2.73-45.145-8.029-16.914-24.977-29.422-44.803-27.62-12.109,1.578-22.154,9.314-24.436,21.535-.486,5.949 1.188,11.647 3.78,16.565 2.133,5.309-.443,10.66-5.362,13.253-13.764,6.148-27.979-3.142-36.036-14.496-15.584-23.948-6.605-55.302 12.521-74.704 13.47-13.017 29.465-20.268 48.511-22.989 38.024-4.594 72.084,13.163 94.12,41.916 19.695,25.997 26.866,58.669 23.309,91.75-3.255,24.12-12.71,45.595-27.195,65.803-16.325,21.77-36.805,36.781-61.646,47.586-56.37,24.914-123.493,13.869-170.864-24.228 18.646,12.646 36.973,23.984 60.815,30.638 28.873,7.922 56.212,8.444 84.566,1.776 32.742-8.021 60.229-25.027 82.462-51.02 23.22-27.623 34.497-60.928 31.925-97.505-1.23-16.357-5.609-30.833-12.539-45.518-8.811-17.833-21.368-31.695-37.535-43.284-30.771-21.339-70.33-24.143-102.346-4.083-19.88,12.922-33.125,33.659-32.129,58.126 1.091,18.059 11.212,35.571 30.231,38.409 4.641.806 9.099-1.396 11.147-5.507 3.036-5.742-1.509-12.958-.953-19.758 1.181-14.45 12.214-23.817 26.091-26.105 11.719-2.037 22.1,1.805 31.354,8.979 20.139,15.336 26.693,39.83 19.58,64.063-6.584,22.993-21.183,39.342-42.164,50.034-15.995,7.249-32.952,10.57-50.411,9.571-36.549-2.986-66.541-23.405-85.82-54.5-22.261-36.474-23.889-79.39-8.726-118.367 15.095-38.127 44.404-66.964 82.091-83.137 49.613-20.759 107.942-17.276 153.138,10.803z" fill="#ccc"></path>
					
					
						<path d="m273.169,37.367c-27.009-15.042-56.801-22.182-88.458-22.201-14.98.059-29.316,2.738-43.333,6.727-27.183,8.047-51.452,22.322-71.108,42.964-8.943,9.964-16.576,19.608-23.108,31.482-6.072,11.483-10.835,22.645-14.037,35.646-9.353,41.164-.787,82.936 25.683,115.046 16.392,19.308 37.518,33.014 63.59,38.567 26.922,5.623 53.437.516 76.076-14.748 15.421-10.72 26.48-25.646 31.938-45.308 7.99-29.723-3.89-62.354-33.335-73.743-8.29-3.245-17.181-4.399-25.959-1.694-5.309,2.133-10.616,4.266-15.214,8.169-5.976,5.073-9.472,11.205-11.406,19.176-1.405,6.731-.47,16.22-8.329,18.145-10.199-.833-16.305-9.889-19.86-18.737-7.866-24.173 4.027-49.299 23.197-63.99 26.456-20.086 63.743-20.89 93.3-5.64 34.908,17.827 56.139,51.221 60.135,91.334 4.178,43.125-12.156,80.723-40.617,109.629-18.596,18.161-40.638,31.335-66.051,38.671-58.226,16.207-121.853-.973-165.017-43.432l-7.024-8.275c35.081,36.665 82.852,59.393 135.717,56.439 33.566-2.391 63.967-13.169 89.183-33.785 22.456-18.272 39.7-40.822 48.151-70.936 10.982-40.175 3.658-81.417-22.49-112.218-5.465-6.437-11.849-12.092-18.691-17.358-29.531-20.81-68.491-25.704-99.198-5.965-18.5,11.751-31.676,31.638-28.383,54.155 1.145,6.939 4.882,18.795 14.05,16.55 2.229-1.102 4.138-3.513 5.196-5.993 5.82-13.643 16.143-24.779 30.62-29.158 13.556-3.598 28.258-.258 39.602,7.514 12.195,7.842 20.643,19.656 24.631,33.672 6.555,24.495-.169,49.187-16.354,69.256-14.21,16.808-32.112,26.468-53.847,30.682-24.287,4.005-47.947.361-69.673-11.254-23.746-13.064-42.228-32.971-53.423-58.272-10.164-22.221-12.539-45.518-10.134-69.708 3.002-26.28 12.138-49.065 28.003-70.444 17.244-22.549 37.861-39.262 64.013-50.388 49.614-20.761 106.632-16.958 153.276,9.101-.782-.919-.463.392-1.312.322z" fill="#999"></path>
						<path d="m273.56,37.827c-20.417-11.937-42.56-18.452-66.29-21.246-29.68-3.281-58.675.768-86.206,13.065-37.296,16.632-66.606,45.468-81.77,84.446-10.93,29.055-12.971,59.264-3.823,88.676 8.116,26.333 23.839,48.583 46.458,64.977 16.557,12.048 34.52,17.366 54.459,19.423 29.75,2.432 58.52-9.336 78.384-32.528 19.933-24.041 23.561-57.971 5.956-83.367-10.719-15.423-30.884-25.199-49.749-19.467-7.009,1.995-13.306,5.758-18.112,12.211-7.173,9.253-4.996,19.271-7.6,30.183-1.796,6.271-9.376,4.796-13.947,3.14-19.315-9.708-22.401-34.774-15.703-53.908 9.273-24.483 31.062-39.816 55.487-45.522 19.646-4.813 39.446-1.055 57.2,6.813 26.505,10.723 45.629,33.248 56.754,59.4 8.215,19.924 9.947,40.601 8.211,61.851-2.891,30.14-17.014,56.367-37.197,78.248-17.428,19.54-39.928,33.104-64.561,41.359-58.434,18.757-124.681,2.22-168.235-40.699 15.82,15.839 35.455,26.856 56.541,35.851 26.896,11.183 53.635,13.794 83.021,10.206 34.555-4.021 63.145-18.8 87.188-40.793 17.148-16.14 29.866-35.637 37.369-59.411 9.439-31.743 8.539-62.62-5.709-92.45-12.504-24.98-31.057-44.037-57.17-54.299-29.836-11.849-65.172-8.748-89.216,13.246-12.092,11.848-21.452,26.912-20.82,45.361 1.118,12.498 5.176,25.664 17.648,30.106 4.181,1.197 7.79-1.076 8.987-5.256 2.395-8.36 3.019-16.011 7.895-23.313 9.68-13.755 25.466-18.455 41.868-14.976 26.001,6.402 42.047,29.96 42.442,56.519 .285,22.698-9.491,42.863-25.261,57.832-18.987,17.701-45,27.127-71.74,24.514-25.04-2.474-48.213-12.068-66.904-29.424-20.642-19.656-33.605-44.247-38.574-72.461-3.936-25.136-1.141-48.867 7.603-72.11 15.164-38.977 44.474-67.814 82.23-84.837 27.461-11.447 56.066-15.955 86.206-13.064 23.732,2.794 45.805,10.16 66.75,20.856-.461.388-.461.388-.07.848z" fill="#ccc"></path>
					
					
						<path d="m275.329,37.116c-33.989-18.607-71.363-27.223-111.616-21.527-36.394,5.583-67.993,20.542-93.233,46.717-26.69,28.196-42.887,64.093-42.751,104.321 .959,45.856 24.437,88.418 64.168,110.061 21.334,11.156 45.316,16.109 70.062,11.715 20.886-4.283 39.638-13.875 54.237-30.224 16.117-19.218 23.761-44.69 17.205-69.186-3.348-11.397-8.924-21.692-17.648-30.107-15.108-14.069-37.78-19.344-56.992-9.362-7.148,3.695-12.274,8.838-17.079,15.29-3.427,5.282-5.361,13.252-12.231,13.547-4.709.044-6.842-5.265-8.654-9.264-1.674-5.698-1.647-11.258-1.162-17.208 3.228-18.561 14.678-33.027 31.271-42.367 21.51-11.933 43.819-12.678 66.811-6.093 20.443,6.376 36.08,19.206 49.35,34.836 18.272,22.457 26.182,51.34 24.6,81.16-1.414,22.559-8.641,42.933-20.047,62.109-12.397,20.806-30.785,36.416-51.906,48.81-35.095,21.092-74.429,26.006-114.742,16.723-44.106-10.024-81.929-34.077-104.972-71.47 36.382,52.173 99.817,82.17 165.596,73 31.615-4.69 58.895-19.146 81.56-39.97 20.366-18.872 33.82-42.16 40.362-69.862 4.217-20.191 3.195-39.1-1.228-58.286-6.095-24.884-21.038-46.213-42.026-61.619-21.84-15.475-48.761-21.098-74.564-14.221-18.406,5.342-34.357,17.301-41.835,35.515-2.255,6.661-4.12,13.782-.356,20.079 1.882,3.148 5.88,1.336 8.179-.616 12.343-9.687 25.927-18.845 42.604-18.766 30.809-.05 54.503,24.134 58.941,53.589 2.904,22.057-2.162,42.178-15.591,59.906-16.256,20.919-38.226,33.242-64.602,36.648-36.715,4.274-69.812-9.554-94.286-34.657-15.75-16.688-26.972-36.43-32.426-58.694-6.919-30.514-3.959-61.504 8.671-90.42 19.51-45.039 59.757-76.833 107.367-88.773 44.99-11.298 93.162-3.939 133.144,19.863-1.171-1.38-2.481-1.058-4.181-1.197z" fill="#999"></path>
						<path d="m274.479,37.046c-52.775-29.555-118.502-31.502-172.028.49-35.094,21.091-60.362,52.826-70.105,93.528-6.75,30.253-4.861,59.5 7.367,87.88 6.859,15.535 16.086,28.268 28.394,39.969 31.776,29.978 79.28,40.277 119.405,20.452 21.441-11.082 38.2-27.682 44.465-51.985 3.938-16.791 3.099-32.689-2.912-48.155-9.633-23.462-35.792-38.434-61.137-31.948-15.326,4.309-25.006,18.064-30.896,32.557-1.587,3.722-5.977,5.074-9.237,3.097-8.543-5.404-10.259-15.812-10.345-25.231 .651-13.21 6.333-25.153 15.276-35.118 12.23-13.547 28.684-21.188 47.662-23.059 19.438-2.262 37.148.896 53.522,9.935 15.134,8.51 27.901,19.821 37.841,34.323 16.754,25.328 23.743,54.991 19.543,85.452-3.088,16.861-8.199,32.273-16.248,47.018-15.432,26.549-37.248,47.44-65.697,60.519-31.529,14.108-64.384,18.271-98.956,12.022-37.512-6.916-68.883-26.164-94.988-52.255-2.341-2.76-4.292-5.058-6.175-8.207 32.324,39.006 80.416,63.043 132.223,62.571 33.357.159 64.468-8.851 90.857-28.086 27.764-20.407 48.044-48.698 56.061-83.981 4.677-20.582 3.724-40.34-1.088-59.985-7.84-29.733-27.994-55.338-55.531-69.14-16.054-7.729-32.846-11.667-51.433-9.336-21.667,3.364-40.879,13.346-52.676,32.063-6.992,12.263-11.85,29.836-1.243,41.398 2.732,3.218 6.8.556 8.708-1.856 5.266-6.843 9.68-13.755 16.506-18.758 9.516-6.497 20.522-10.303 32.421-9.331 18.7,1.528 34.017,13.047 43.427,28.79 10.512,17.973 11.463,37.73 4.766,56.863-7.504,23.773-23.941,41.684-46.163,51.846-31.069,13.72-65.988,11.721-95.017-4.768-33.921-19.457-56.46-52.531-62.156-92.784-4.229-32.005 2.129-62.718 17.63-90.115 21.366-36.332 55.176-62.662 96.307-73.848 45.06-12.147 92.841-5.249 133.353,17.313l-1.703-.14z" fill="#ccc"></path>
					
				</g>
				
					
						<path d="m208.206,7.36c-29.165-5.076-58.601-2.292-86.974,7.284-32.771,10.906-59.419,32.204-80.742,60.162-38.65,52.725-39.617,126.643 3.979,176.41 16.174,18.188 35.48,30.051 58.985,36.921 23.571,6.271 47.48,4.085 69.793-5.561 20.448-9.248 34.974-25.223 43.376-46.129 6-15.713 6.142-33.294-2.509-48.215-4.125-6.528-10.914-16.388-19.906-11.93-2.734,8.19-1.34,17.447-2.876,25.771-4.139,20.775-20.395,35.951-40.908,40.336-21.112,4.318-40.954-2.75-56.93-17.276-26.958-24.852-31.269-62.346-17.335-94.771 17.934-41.081 60.765-66.033 104.849-64.147 28.369,1.346 54.604,10.948 77.969,29.938 31.153,25.32 48.053,58.758 50.897,98.517 1.92,20.845.979,40.156-5.557,60.665-6.67,21.707-17.134,39.35-31.26,57.189-25.32,31.154-58.494,51.116-96.457,59.622 8.326-3.924 16.983-5.385 25.243-8.712 14.654-6.252 27.577-13.305 40.767-22.755 11.991-9.584 22.186-19.369 32.047-31.617 27.521-34.55 39.26-74.5 34.419-118.122-3.117-26.439-12.696-49.353-28.535-70.537-24.892-32.51-61.441-52.972-102.729-52.726-39.491.448-77.526,20.475-95.989,55.428-11.532,21.771-14.273,46.343-6.559,69.654 4.588,13.255 12.44,24.446 23.558,33.575 13.913,11.261 30.892,16.796 48.874,13.342 13.653-2.725 26.043-10.444 33.441-22.36 3.731-6.259 5.733-13.316 5.937-20.575 .271-7.858-2.591-14.852-4.784-22.378-.798-3.73-2.128-8.126 1.735-10.122 10.125-3.724 20.243,3.472 26.7,10.867 14.51,16.789 16.229,39.432 9.027,60.472-10.335,27.365-33.119,46.667-60.693,54.512-46.289,12.43-95.559-8.236-123.31-47.74-28.283-40.17-32.455-89.785-14.054-135.06 15.202-38.351 43.385-67.972 81.819-86.134 33.304-15.697 69.867-22.539 104.692-13.798z" fill="#999"></path>
						<path d="m215.332,8.761c-42.75-8.41-86.572-1.772-125.54,21.184-29.243,17.367-50.765,41.664-64.431,71.691-9.733,21.972-14.073,44.545-12.62,69.585 2.384,27.572 10.563,52.148 27.535,74.066 14.908,18.654 33.415,32.248 56.186,40.25 19.842,7.068 39.887,6.878 59.8,2.425 24.377-6.381 46.16-22.154 56.693-45.857 4.8-10.386 7.202-21.04 6.076-32.694-1.461-8.658-4.188-16.85-9.444-24.111-2.13-2.665-4.993-4.198-7.923-5.131-2.397-.268-4.995,1.263-5.329,4.26-1.804,10.72-2.94,20.908-7.674,30.696-8.398,15.446-22.92,25.961-40.836,28.816-32.7,4.846-61.858-16.611-73.697-46.451-12.238-31.705-5.43-65.531 16.359-92.226 16.724-19.371 36.909-31.681 61.152-36.864 32.9-6.643 66.793-.434 95.087,17.893 15.244,10.196 28.492,21.989 38.873,37.711 13.907,22.183 23.486,45.095 25.338,72 1.255,21.376-.286,40.622-7.488,61.663-9.271,28.697-24.065,52.531-46.317,72.499-24.25,21.565-51.428,36.736-82.464,42.981 23.777-6.449 45.491-16.161 66.475-30.203 12.524-8.917 22.186-19.369 32.646-31.55 23.855-28.891 35.458-62.183 37.006-97.81 1.215-32.63-8.626-64.068-27.392-91.646-17.836-25.048-41.469-41.642-70.833-50.379-21.106-6.603-42.351-6.546-63.529-1.628-18.782,5.185-35.569,14.234-50.493,28.346-13.524,12.446-21.323,27.959-25.66,45.072-9.139,32.959 1.433,68.725 29.593,88.251 14.646,10.129 31.892,13.268 49.275,9.747 13.121-3.391 24.912-11.176 32.242-22.494 6.731-11.385 8.136-23.97 6.611-37.489-.199-3.663-.33-7.925 3.399-8.723 3.797-1.397 7.858.27 11.187,3.068 18.772,16.659 19.492,42.83 10.425,64.269-10.667,24.901-33.317,43.004-59.492,49.185-11.788,2.325-24.109,3.984-36.095,2.646-22.707-3.141-43.613-11.542-62.519-27-30.488-25.853-44.723-61.42-45.903-99.779-.581-38.292 11.755-72.715 38.141-102.537 42.377-48.062 105.852-67.679 165.58-53.732z" fill="#ccc"></path>
					
					
						<path d="m185.566,3.62c-22.375-.678-44.62,2.909-66.066,10.224-33.503,12.038-61.948,33.134-82.208,62.426-14.594,22.037-23.329,45.938-26.205,71.709-3.21,28.768 2.703,57.339 17.341,83.851 13.774,23.381 32.479,40.638 56.713,51.837 16.712,7.933 34.558,11.137 53.47,10.215 23.842-1.588 45.489-10.7 62.612-28.207 22.52-22.365 32.392-56.457 14.958-85.1-4.192-5.929-8.452-11.258-14.71-14.991-3.463-1.6-6.858-3.799-11.054-4.267-5.393-.602-13.452.926-12.39,7.718 .466,1.266.864,3.131 1.33,4.396 7.984,15.454 9.04,33.168-1.621,47.148-12.794,16.775-33.973,21.693-53.55,17.689-15.98-3.604-28.895-12.934-38.346-26.124-18.3-26.313-18.75-60.344-4.086-88.439 13.73-25.166 36.98-43.201 64.554-51.046 31.37-9.243 65.33-3.633 93.893,12.297 26.763,15.729 46.664,38.581 58.57,67.821 4.655,12.655 7.58,24.51 9.704,38.097 1.525,13.519 1.253,26.837-.219,40.022-2.138,13.718-6.073,27.235-11.207,40.617-8.934,20.24-21.194,37.682-36.985,54.124-23.052,21.699-49.631,36.936-80.201,44.447 .067-.599.067-.599-.532-.666 37.497-9.772 70.072-29.801 94.858-61.621 21.99-28.492 34.127-61.118 34.477-96.879-.19-20.044-3.577-38.626-11.16-57.675-9.58-22.913-23.222-42.032-43.325-57.625-22.967-17.125-48.668-26.062-77.17-26.208-29.768.319-57.144,11.826-78.398,33.727-15.124,15.908-23.391,35.617-25.133,56.659-1.209,21.71 4.907,43.022 21.349,58.813 10.916,10.927 24.831,16.726 39.215,18.332 14.45,1.006 29.037-4.647 38.832-16.297 7.063-8.92 9.465-19.574 7.074-30.763-2.128-8.125-8.185-13.656-13.51-20.318-2.596-3.93-1.461-8.658 1.87-11.32 7.928-5.79 18.115-4.652 26.838-1.252 20.24,8.933 31.285,29.583 31.875,51.493 .655,21.311-6.812,39.288-20.738,55.33-17.391,19.904-39.637,28.95-65.41,31.535-25.174,2.651-48.678-4.219-69.716-16.882-34.02-21.393-55.646-55.966-60.821-96.59-2.122-19.047-1.314-37.16 3.223-56.07 7.205-26.503 19.47-49.406 38.725-69.707 35.646-36.678 84.002-56.766 133.28-52.48z" fill="#999"></path>
						<path d="m191.559,4.289c-22.241-1.875-44.485,1.71-66.397,7.76-27.042,8.511-50.49,22.884-71.078,44.251-18.589,19.769-30.719,41.473-37.857,67.375-6.937,24.103-6.549,47.811-1.299,71.455 5.514,26.706 18.756,49.421 40.256,68.811 18.772,16.657 40.211,25.724 64.183,28.399 23.973,2.675 48.815-2.44 69.199-16.549 24.383-17.303 39.847-47.129 32.868-77.034-2.459-10.589-7.314-21.447-16.835-28.577-5.06-3.599-11.384-6.732-17.578-5.602-2.531.931-4.597,3.128-4.331,6.19 .995,7.394 3.922,13.787 4.851,21.778 .795,9.191-1.939,17.381-6.472,25.37-8.265,14.247-24.85,21.498-41.366,22.689-15.25.725-29.166-5.075-41.481-14.338-11.117-9.129-18.371-20.253-22.959-33.508-6.984-18.982-5.909-39.493 1.692-58.668 11.47-32.091 38.185-53.987 70.087-62.563 26.241-6.781 53.344-4.97 78.845,5.764 28.43,11.667 49.864,31.656 65.034,58.833 24.287,43.364 24.93,91.979 6.062,135.989-21.333,49.802-65.969,85.475-117.785,98.503 15.187-5.587 30.172-9.376 44.493-18.093 19.586-12.377 36.772-25.021 51.032-44.061 22.058-29.091 34.26-62.316 34.609-98.076 .085-38.825-12.816-75.458-41.238-103.508-25.161-24.651-56.32-39.051-91.549-38.734-25.506.187-48.951,9.1-68.87,24.474-17.388,14.443-29.184,33.149-34.056,55.057-4.34,22.574-.821,45.417 12.821,64.536 9.517,12.591 23.032,21.987 38.413,25.524 13.052,2.67 25.904,1.677 38.161-4.844 3.93-2.595 7.261-5.258 10.659-8.519 4.132-4.394 7.131-9.52 8.998-15.378 3.869-12.918 1.61-25.306-5.643-36.431-2.063-3.263-3.326-8.258.604-10.854 5.262-3.659 11.787-2.325 17.647-.458 12.783,5.067 21.302,15.727 25.958,28.382 9.244,25.91 2.505,53.675-16.75,73.978-14.325,14.177-30.046,24.56-49.894,28.413-8.658,1.461-17.249,2.322-25.772,2.584-29.634-.88-56.732-13.612-78.698-34.266-20.768-20.521-32.61-44.9-37.99-72.807-5.579-31.567-.303-62.532 13.828-91.293 29.266-61.053 98.341-98.246 165.598-91.954z" fill="#ccc"></path>
					
					
						<path d="m166.854,2.745c-51.346,3.373-99.106,28.988-129.96,71.66-11.595,16.911-19.595,34.221-24.266,54.33-6.408,30.23-5.024,61.331 7.481,90.638 21.288,48.491 69.153,81.744 123.763,76.31 36.828-3.779 69.07-26.272 80.342-62.028 6.47-19.908 5.214-41.286-6.765-59.006-10.913-16.386-34.349-29.317-52.202-16.14-4.663,3.727-4.067,9.254.326,13.386 8.921,7.063 15.177,16.256 14.505,27.71-1.008,19.912-18.463,34.953-38.042,36.409-14.651.792-28.235-2.544-39.951-11.739-16.709-13.394-26.224-31.445-28.078-52.89-1.387-25.639 7.282-48.943 25.205-68.18 20.655-21.967 47.964-32.875 77.73-33.193 27.903.079 54.271,8.483 77.172,26.208 20.104,15.592 33.745,34.711 43.325,57.625 18.624,45.16 12.475,94.836-11.586,136.446-15.063,26.231-35.518,46.399-63.294,61.503-14.188,7.518-28.176,13.239-43.229,17.627l-3.596-.401c51.083-11.896 95.052-47.037 117.451-95.507 8.2-19.109 12.804-38.618 13.88-59.129 .479-26.037-4.105-50.213-17.213-74.127-14.571-27.111-35.473-46.433-62.637-58.566-28.963-12.334-60.928-14.082-90.767-2.241-32.438,13.37-56.958,42.792-60.238,77.62-2.678,29.433 12.091,60.207 40.454,72.474 17.445,6.801 38.356,4.28 51.616-11.229 4.864-5.525 6.799-11.984 7.001-19.243-.131-4.262-1.461-8.658-4.056-12.588-4.192-5.929-10.718-7.264-16.377-10.929-2.264-1.466-3.195-3.998-3.526-6.462-.195-9.124 7.2-15.58 14.792-18.373 22.113-7.847 44.882,5.616 55.995,25.666 15.567,29.042 8.96,61.071-11.43,86.101-17.524,21.102-40.638,32.479-68.209,34.862-20.844,1.922-39.822-2.017-58.332-10.15-20.839-9-36.815-23.525-50.591-41.446-26.285-36.309-32.191-81.263-20.116-124.21 19.811-68.783 83.498-117.499 153.423-118.798z" fill="#999"></path>
						<path d="m171.715,2.682c-37.227,1.913-72.661,14.948-102.573,38.308-27.247,21.231-45.574,49.525-54.78,83.084-9.474,35.957-6.827,72.052 11.803,106.29 18.697,33.64 48.92,56.429 85.144,63.505 37.422,7.21 77.717-5.89 100.641-37.311 15.061-20.771 19.135-46.408 10.29-70.452-7.118-17.785-23.693-32.376-43.871-30.988-7.326.396-15.987,7.317-10.729,14.579 5.789,7.927 12.912,14.79 13.572,25.18 .729,9.789-2.073,18.579-8.403,26.367-13.992,16.641-35.57,19.695-54.813,12.692-34.356-12.935-50.721-51.168-43.245-85.527 4.805-21.309 16.001-40.082 33.389-54.525 11.392-9.65 24.181-15.505 38.035-20.026 25.775-8.046 52.745-5.037 78.313,5.099 22.106,8.534 40.546,22.728 54.787,41.914 19.499,26.447 29.475,56.685 29.459,89.45-.351,35.761-11.887,68.453-34.544,97.478-24.72,31.221-58.026,52.382-95.458,61.554 50.685-13.761 95.187-48.236 115.921-98.105 8.2-19.109 13.404-38.551 13.348-59.794-.257-19.446-2.978-38.56-10.628-57.01-9.579-22.913-23.222-42.032-43.325-57.625-22.368-17.059-48.002-26.594-76.504-26.74-24.906.254-48.285,8.567-68.205,23.941-17.321,13.843-28.518,32.617-33.322,53.925-3.871,18.378-1.616,36.228 7.366,53.613 9.648,16.853 23.494,28.712 42.471,32.651 14.85,2.871 29.768-.319 41.161-9.969 7.395-6.456 12.06-15.643 11.932-25.367-.064-4.862-1.394-9.257-3.323-13.72-3.593-5.861-9.252-9.527-14.178-14.325-4.326-4.729-1.193-11.055 3.403-14.182 15.721-10.381 34.896-2.78 46.811,10.078 18.97,20.321 21.153,49.689 10.554,73.991-8.065,17.911-20.594,32.289-38.112,42.47-20.716,11.643-42.96,15.229-65.135,12.754-43.15-4.815-79.364-33.734-97.925-74.033-10.178-22.979-13.629-46.422-12.086-71.128 1.607-19.844 7.343-38.621 16.608-56.397 26.73-54.664 85.35-90.597 146.151-91.699z" fill="#ccc"></path>
					
					
						<path d="m152.27,2.938c-30.304,5.114-57.679,16.622-82.794,35.056-23.183,17.437-39.043,39.938-50.51,66.569-7.534,18.577-11.472,37.554-11.948,58.131 .254,24.906 5.571,47.951 18.213,70.599 6.122,10.391 12.444,18.984 20.564,27.779 22.897,23.185 52.925,36.852 85.023,37.399 23.041.144 45.021-6.504 64.14-20.147 13.256-10.049 23.119-22.298 29.652-37.345 5.732-13.315 7.271-27.101 5.214-41.286-2.119-24.507-19.091-46.425-43.995-51.631-11.852-2.536-24.306.322-32.702,10.307-4.931,6.124-6.134,16.913 2.654,19.713 6.991,2.601 12.65,6.266 16.177,12.728 2.994,5.795 2.325,11.788.391,18.248-7.068,19.842-29.647,26.422-48.558,21.885-17.712-4.404-31.491-16.863-39.94-33.582-11.775-24.979-9.298-52.613 4.165-75.383 11.263-19.374 28.652-33.816 49.632-42.396 29.241-11.907 61.139-9.561 90.101,2.773 26.499,12.666 47.399,31.987 61.972,59.099 16.034,30.308 20.415,61.743 14.405,93.838-5.743,35.159-22.607,66.65-49.656,91.543-23.651,21.631-50.762,36.203-81.798,42.448-1.864.398-3.063.265-4.861.064 36.63-7.441 70.069-24.34 96.455-54.162 28.45-32.019 43.053-70.436 41.075-112.524-1.845-43.287-22.471-81.389-57.82-107.178-26.428-18.725-57.79-25.866-89.359-20.286-17.982,3.454-34.035,11.37-48.758,23.684-12.725,10.715-21.522,24.296-26.923,40.077-9.003,26.3-3.688,54.805 16.014,73.995 9.852,9.594 21.303,15.726 34.622,15.999 11.521.072 23.442-3.452 30.64-13.57 4.265-5.592 5.001-12.185 3.938-18.978-2.128-8.125-11.184-8.529-17.509-11.663-9.787-4.732-9.447-18.651-3.051-27.038 5.731-7.856 14.724-12.314 23.98-13.708 12.92-1.592 24.04,2.076 34.758,9.34 21.902,15.792 30.346,43.433 26.272,69.07-1.87,11.321-6.737,22.306-12.735,32.559-14.662,22.635-38.775,37.541-65.483,43.055-20.446,3.786-40.291,2.177-60.132-4.891-33.224-12.203-57.986-34.99-73.821-67.095-17.164-36.503-18.345-74.861-5.54-113.48 11.871-35.689 34.858-62.249 65.102-83.145 19.652-12.976 40.566-20.958 63.543-25.675 3.13-.864 6.127-.53 9.191-.795z" fill="#999"></path>
						<path d="m155.933,2.74c-29.637,4.581-58.078,14.756-83.259,33.79-11.325,9.052-21.385,17.638-30.581,29.354-8.529,11.184-15.86,22.501-20.927,35.285-13.066,30.095-17.277,62.391-9.967,94.759 6.512,28.639 21.284,53.951 44.583,73.541 25.029,20.39 53.061,30.191 85.493,27.744 26.972-2.451 49.952-12.629 68.076-33.664 14.658-17.175 22.926-36.883 20.605-59.592-1.659-12.32-4.65-23.576-12.038-33.502-8.451-11.259-20.234-19.855-34.618-21.46-11.387-1.271-25.107,2.052-29.508,14.304-1.533,2.862-2.534,6.391.129,9.723 3.261,3.398 8.521,5.199 12.515,7.464 8.988,6.465 11.38,17.653 7.778,28.173-3.533,9.921-10.996,16.976-20.587,21.367-14.653,6.252-30.769,3.848-44.483-3.75-23.368-13.53-35.408-41.572-32.998-68.608 3.814-39.621 34.797-72.571 73.559-82.808 25.575-6.248 52.012-3.904 76.913,6.763 21.372,9.666 39.879,23.26 53.454,42.979 10.382,15.721 18.299,31.774 22.885,50.489 6.78,26.241 5.103,52.146-2.102,78.647-10.672,35.822-32.063,64.381-61.841,86.543-20.385,14.108-42.165,24.42-65.742,29.07 57.276-13.025 107.31-53.557 125.45-112.817 10.271-32.227 10.886-64.925-.753-96.562-10.774-28.507-28.743-52.357-54.241-68.552-14.247-8.264-29.295-14.797-45.343-17.802-19.71-2.806-39.822-2.016-59.538,6.098-28.574,11.374-51.093,33.739-59.299,63.769-4.403,17.712-3.946,35.359 4.437,52.679 6.919,14.121 16.637,24.914 31.084,31.38 16.845,6.734 37.557,6.012 50.749-8.899 6.33-7.788 8.6-17.243 5.407-26.701-2.86-6.994-9.118-10.727-16.843-12.194-5.327-1.202-7.587-8.128-6.386-13.456 3.868-12.917 16.79-19.97 29.51-19.764 12.12.139 23.173,4.406 32.559,12.735 14.312,13.126 20.298,30.177 21.287,48.491 .782,36.493-23.474,68.98-57.177,82.816-22.846,8.978-47.354,11.098-71.458,4.161-32.959-9.14-58.589-29.596-76.488-59.505-12.643-22.648-19.225-45.227-19.412-70.732 .149-33.964 10.42-66.19 31.144-94.216 29.121-38.014 71.286-62.434 117.972-67.54z" fill="#ccc"></path>
					
					
						<path d="m141.281,3.532c-29.904,6.979-57.414,19.685-80.998,40.717-21.585,19.436-36.313,42.67-46.649,70.035-7.001,19.243-8.542,38.487-7.819,59.198 1.916,31.767 13.356,59.742 34.322,83.925 22.697,24.984 52.457,41.047 86.286,42.396 28.368,1.345 56.608-7.032 78.195-26.468 23.651-21.631 34.521-53.791 26.41-84.428-3.788-14.985-12.639-28.108-25.621-36.838-12.449-8.064-27.231-11.535-41.685-7.079s-26.979,18.833-21.393,34.019c1.463,3.198 3.526,6.461 6.989,8.061 6.391,2.534 14.849,2.871 17.042,10.397 2.858,12.455-5.671,23.639-17.061,27.828-10.723,3.657-21.645,3.652-32.098-.548-16.246-6.667-27.494-20.058-33.613-35.91-7.448-20.248-5.506-43.089 4.492-61.998s25.056-34.218 45.504-43.463c22.98-10.179 47.487-12.298 71.726-6.559 33.094,7.94 59.988,27.931 78.553,57.308 16.969,27.379 23.814,58.481 20.936,89.713-3.213,34.228-17.612,65.387-41.866,92.412-26.318,29.223-59.757,46.122-96.986,53.496-3.729.798-6.726.463-10.389.661 22.844-3.518 43.558-9.702 64.939-21.878 38.235-21.825 65.422-53.377 77.429-95.726 7.071-25.302 8.015-50.074 2.366-75.583-6.512-28.64-21.352-53.353-44.582-73.542-42.138-35.647-103.602-39.473-145.308-2.865-30.313,26.956-40.659,76.163-11.439,107.942 13.579,14.258 35.818,21.594 52.938,9.548 5.996-4.791 10.729-14.579 4.005-19.577-4.46-3.531-9.121-5.265-13.581-8.797-2.729-2.731-4.059-7.127-5.456-10.923-2.66-8.792.141-17.581 5.805-24.837 10.595-13.381 28.51-16.235 43.959-13.298 14.781,3.471 27.164,12.134 36.082,24.657 10.515,14.523 13.97,32.504 12.628,49.952-2.68,34.895-27.2,64.316-59.705,78.286-40.696,16.696-85.244,8.084-119.727-20.035-35.015-28.785-52.841-70.215-51.555-114.367 1.481-35.028 13.018-67.72 36.206-96.078 25.254-30.555 57.229-50.651 95.192-59.157 1.864-.399 3.729-.798 5.527-.597z" fill="#999"></path>
						<path d="m143.678,3.8c-29.771,5.779-56.747,19.151-80.797,38.919-27.448,23.028-45.443,53.787-53.584,88.678-5.873,25.436-3.887,51.142 3.626,76.251 3.524,11.922 9.046,22.247 15.7,33.306 12.977,19.65 29.485,34.842 49.591,44.974 22.903,12.264 49.072,17.004 75.112,12.022 30.437-6.312 57.349-24.546 71.414-52.708 14.267-29.96 10.89-70.385-18.335-91.243-16.311-11.529-39.617-14.737-55.207-.093-2.799,3.329-6.263,7.189-7.398,11.917-1.402,7.125.193,14.584 6.384,18.915 2.863,1.533 5.993.669 8.922,1.604 8.789,2.8 11.382,12.191 9.248,20.448-6.004,21.174-29.647,26.424-48.957,20.021-14.049-4.601-23.899-14.195-31.62-26.586-11.245-18.852-11.301-40.095-5.365-60.669 11.138-34.557 40.45-57.985 75.149-64.428 31.567-5.579 62.331,1.495 88.826,19.621 35.483,24.59 57.309,62.825 59.086,106.712 1.977,42.088-10.895,81.306-40.544,113.19-27.584,29.688-61.423,50.183-100.783,54.893 37.164-6.775 70.534-23.074 97.386-51.631 14.524-15.975 25.521-32.952 33.256-53.325 9.468-25.036 12.344-50.806 8.628-77.312-5.113-30.303-17.954-56.614-40.386-78.534-20.302-19.255-44.47-31.054-71.438-34.063-19.246-1.541-37.693.648-56.144,8.297-23.047,10.777-41.369,28.15-50.77,52.585-9.468,25.035-6.019,53.938 12.352,74.191 12.979,14.191 32.154,21.792 50.471,15.341 7.593-2.793 13.656-8.185 16.922-15.708 2.601-6.992.607-16.316-6.518-17.718-7.058-2.001-13.383-5.134-16.31-11.529-2.994-5.794-1.726-11.722.075-16.981 4.268-11.053 14.792-18.373 26.513-20.099 15.452-2.524 30.767,1.613 42.882,12.673 15.443,13.859 23.025,32.909 23.217,52.953-.204,7.26-1.007,14.451-3.075,22.108-4.801,15.848-13,29.496-25.258,41.476-21.72,20.634-49.361,29.078-78.395,28.266-45.284-2.02-85.293-29.542-106.717-71.373-18.361-36.634-20.741-75.126-7.337-113.678 9.203-28.098 23.932-51.333 46.117-70.702 23.584-21.032 51.76-34.271 82.264-41.182l1.797.201z" fill="#ccc"></path>
					
					
						<path d="m134.555,3.995c-22.512,5.983-43.493,14.564-62.746,29.405-23.849,17.969-42.106,40.202-54.24,67.367-19.333,42.745-18.556,90.161 4.531,133.391 23.222,42.032 64.031,67.824 110.714,68.178 20.045-.19 38.161-4.842 56.346-15.556 19.517-11.778 33.443-27.82 41.845-48.727 7.867-21.572 7.945-44.014-3.032-65.263-7.519-14.188-18.502-24.516-33.616-30.45-12.251-4.401-25.57-4.674-37.692.649-11.457,4.789-19.186,14.241-21.723,26.095-.869,7.79 1.326,15.316 6.117,21.313 3.127,4.596 8.454,5.798 12.915,9.329 4.394,4.131 3.724,10.125.26,13.985s-7.994,6.389-13.056,8.251c-28.772,7.711-53.066-19.271-57.982-45.911-2.922-17.315.149-33.962 7.948-49.476 9.332-18.375 24.123-31.288 42.773-40.735 17.318-8.383 35.167-10.638 53.88-9.764 31.298,2.279 59.993,17.01 81.559,41.261 19.899,22.851 30.875,49.56 34.058,80.861 2.45,26.973-3.355,51.809-13.955,76.11-11.933,25.368-30.057,46.402-53.239,63.839-24.515,18.501-52.29,28.145-83.058,31.993-4.262.131-9.124.195-13.386.326 37.227-1.914 72.662-14.949 102.574-38.309 27.247-21.23 45.573-49.525 54.779-83.084 10.14-36.489 6.827-72.052-11.803-106.29-13.641-24.579-32.878-42.502-57.047-54.301-32.821-15.798-71.713-15.284-103.688,4.812-16.32,10.314-27.581,24.228-34.981,41.604-7.667,19.775-6.945,40.487 3.102,59.204 8.65,14.921 22.63,25.584 40.412,23.927 6.793-1.063 15.986-7.318 10.729-14.58-8.586-10.059-16.373-21.85-12.969-36.034 3.537-15.381 16.261-26.097 31.247-29.885 16.85-4.188 33.363.082 47.41,10.145 27.428,20.657 35.534,56.755 24.065,88.848-15.005,42.014-55.439,67.233-98.525,67.279-22.442-.077-43.616-6.081-63.056-16.745-26.831-15.129-46.064-38.513-58.038-67.154-9.978-24.777-12.496-51.149-9.553-77.52 3.743-28.101 16.408-54.599 32.934-77.633 25.117-29.357 58.826-54.114 97.187-60.755z" fill="#999"></path>
						<path d="m135.754,4.129c-50.484,11.963-94.986,46.437-117.385,94.907-11.266,24.835-15.408,51.071-13.09,79.241 2.055,19.647 7.441,36.63 16.955,54.683 19.561,36.769 53.247,61.158 93.2,67.437 34.027,5.011 68.461-4.496 93.711-29.589 25.919-25.626 34.927-62.849 18.627-96.22-7.519-14.188-18.435-25.115-32.949-30.981-17.444-6.802-38.356-4.28-51.549,10.629-7.73,9.453-9.733,21.972-3.012,32.431 3.727,4.663 8.853,7.662 14.113,9.462 5.193,2.4 6.988,8.061 5.188,13.322-5.8,13.915-22.516,16.904-36.167,14.167-27.767-6.739-42.736-35.715-42.124-62.952 .875-18.711 7.542-34.958 19.536-50.002 24.521-29.423 61.486-39.86 97.243-34.05 32.163,5.41 59.79,24.269 79.89,50.783 14.174,19.785 22.022,41.898 25.341,66.54 3.051,27.039-1.557,52.009-12.224,76.91-23.935,56.793-80.357,94.792-140.96,99.558 22.244-3.585 43.357-7.904 65.271-19.415 26.444-14.039 46.698-32.409 62.76-56.708 18.325-28.293 26.665-59.522 25.018-93.686-2.048-36.028-16.684-68-43.643-92.854-12.114-11.06-25.229-18.591-40.344-24.525-18.644-6.935-37.289-8.409-57.002-5.755-37.029,5.576-67.741,30.668-77.281,67.224-5.604,23.039-1.021,47.214 16.485,64.337 13.18,12.393 32.556,18.196 48.344,7.216 3.93-2.596 5.664-7.257 4.334-11.653-1.729-6.261-9.985-8.395-14.245-13.725-9.052-11.325-7.446-25.709 1.083-36.893 7.13-9.519 17.321-13.843 28.976-14.97 25.174-2.652 46.743,10.678 58.188,33.191 10.978,21.249 11.567,43.159 3.632,65.331-6.668,16.246-16.73,30.292-30.121,41.54-28.646,22.895-64.477,28.605-99.833,19.199-41.216-11.274-71.835-41.389-87.533-80.154-15.165-38.1-13.614-79.187 2.719-116.805 21.864-49.136 66.699-86.607 118.848-97.171z" fill="#ccc"></path>
					
					
						<path d="m131.558,3.661c-29.971,7.578-56.549,22.815-79.601,44.514-10.86,10.317-19.456,22.099-26.92,34.615-14.263,24.5-22.134,51.534-22.28,80.037 .326,13.385 1.386,25.639 4.776,38.76 3.457,12.521 7.646,23.911 14.234,35.568 21.426,36.371 56.31,60.894 97.596,66.107 25.171,2.809 49.946-1.708 72.729-15.548 23.448-14.374 39.241-36.275 45.248-62.91 3.87-18.378 1.682-36.825-7.833-54.877-14.571-27.111-45.597-42.708-74.837-30.801-8.259,3.325-15.521,8.583-20.053,16.571-2.4,5.193-4.8,10.386-5.469,16.38-.87,7.791.792,14.651 4.851,21.778 3.594,5.862 10.783,12.126 6.384,18.917-7.994,6.389-18.648,3.986-27.304-.014-22.304-12.197-30.881-38.639-27.007-62.478 5.476-32.762 32.06-58.92 64.029-68.095 37.631-10.969 75.985-1.229 106.405,25.223 32.619,28.518 46.519,67.082 45.633,107.638-1.077,25.971-8.082,50.675-21.544,73.443-31.258,51.729-89.344,82.867-149.876,81.573l-10.788-1.204c50.677,2.621 101.029-13.604 137.475-52.012 22.788-24.762 37.519-53.456 41.729-85.753 3.81-28.7.893-56.938-13.611-84.647-19.562-36.77-53.179-61.758-93.333-66.239-8.392-.936-16.916-.674-25.507.187-35.764,5.111-67.473,28.271-76.281,63.695-5.404,21.24-1.353,44.75 16.488,58.877 5.592,4.265 16.444,10.33 21.575,2.408 .866-2.331.602-5.395-.329-7.925-5.122-13.92-5.247-29.104 2.284-42.22 7.397-11.916 20.388-19.569 33.973-21.693 14.254-2.657 28.504.146 41.02,7.611 21.57,13.33 33.612,35.91 35.599,61.617 1.188,21.977-5.215,41.286-18.143,59.26-14.927,19.572-34.645,33.147-58.422,39.596-26.241,6.78-53.344,4.969-78.845-5.765-22.637-9.2-40.344-24.525-55.185-43.778-15.84-21.184-24.819-44.031-27.936-70.471-2.917-28.237.625-54.54 12.025-80.573 21.865-49.137 65.968-85.476 117.785-98.504-1.199-.134-.068.6-.734,1.132z" fill="#999"></path>
						<path d="m132.158,3.728c-23.044,5.316-43.627,15.762-62.813,30.004-23.849,17.968-42.174,40.801-53.774,68.633-15.734,37.684-17.286,78.771-1.587,117.537 11.974,28.641 31.208,52.025 58.038,67.154 23.967,13.597 50.669,19.005 78.374,15.421 20.313-2.588 37.031-11.038 52.953-23.217 23.317-18.635 36.184-46.931 34.732-77.433-1.982-31.167-22.614-58.346-52.844-64.754-18.379-3.872-39.758,2.844-49.556,19.954-3.732,6.259-5.733,13.316-4.805,21.309 1.126,11.654 9.582,17.451 15.17,27.177 2.994,5.795-3.534,9.921-7.997,11.851-20.714,6.183-40.152-9.942-48.401-28.46-10.043-24.178-4.704-50.28 9.158-71.184 10.996-16.976 27.983-27.823 46.299-34.274 26.643-10.376 56.009-7.099 82.042,4.301 19.643,8.866 35.085,22.724 48.396,39.38 18.568,23.916 26.279,52.688 26.598,82.456 .72,26.172-6.352,51.475-18.615,74.377-29.66,53.728-89.212,87.129-150.344,85.769 22.375.676 44.221-4.773 65.735-12.688 27.242-10.309 48.492-26.748 67.417-49.514 22.388-26.627 33.058-56.989 35.47-89.485 1.41-23.507-2.707-46.418-13.553-68.865-14.901-29.575-36.734-51.427-67.563-63.363-26.232-9.603-52.804-10.747-78.847-.304-29.839,11.84-53.427,38.333-55.84,70.83-.674,16.916 2.847,34.297 15.96,47.29 9.386,8.329 21.369,15.126 33.492,9.805 3.864-1.996 4.931-6.125 2.935-9.988-3.991-7.727-8.784-13.723-10.245-22.38-2.39-16.65 5.875-30.897 20.197-39.614 23.313-13.174 51.147-7.035 69.651,12.021 15.775,16.323 22.491,37.703 21.282,59.411-1.678,25.905-14.143,50.605-35.395,67.044-19.919,15.374-43.363,24.286-68.869,24.474-28.503-.146-54.803-9.15-77.77-26.275-20.104-15.592-34.346-34.779-43.925-57.691-15.695-38.767-14.144-79.855 1.657-118.139 12.133-27.165 29.858-50.064 53.774-68.633 19.187-14.243 40.301-24.022 62.879-30.604-.066.6-.066.6.534.667z" fill="#ccc"></path>
					
					
						<path d="m132.958,1.997c-37.498,9.771-70.604,29.134-95.992,60.888-22.655,29.024-35.391,61.583-35.807,97.942-.085,38.825 12.75,76.057 40.438,105.239 32.15,32.713 78.426,47.585 122.184,36.085 23.177-6.515 44.027-19.358 59.021-39.528 12.262-17.442 19.33-37.284 18.74-59.194-1.452-25.04-13.36-48.819-34.932-62.149-10.253-5.998-21.372-9.666-33.492-9.805-20.644.124-40.761,11.835-47.896,32.276-2.667,7.591-2.871,14.85-1.942,22.841 1.129,6.194 5.188,13.321.39,18.248-3.397,3.262-8.59.861-12.652-.806-5.126-2.999-8.92-7.063-12.648-11.727-10.381-15.721-11.97-34.102-6.301-52.28 7.47-23.437 23.193-39.279 44.442-50.257 19.25-9.381 39.429-10.77 59.805-8.496 28.7,3.81 54.266,19.404 73.567,42.189 14.442,17.388 23.157,37.17 28.009,58.949 5.248,23.644 2.573,47.616-4.297,71.12-11.073,39.419-36.327,69.974-72.031,90.867-38.97,22.957-82.992,31.393-125.407,19.985 62.26,13.015 128.998-8.663 170.577-60.454 19.79-25.096 29.728-54.326 31.939-85.025 1.877-27.702-4.304-53.877-18.543-78.523-10.78-17.586-24.492-30.646-40.869-41.574-21.503-13.929-47.006-19.202-72.846-16.018-26.507,3.717-49.955,18.09-64.017,40.792-9.73,16.511-13.136,36.154-6.086,54.538 2.927,6.395 6.454,12.855 13.512,14.856 3.529,1 5.196-3.061 5.53-6.058 2.338-15.515 5.942-31.497 18.134-42.877 22.386-21.167 56.216-19.818 79.647-1.427 17.242,14.059 27.355,32.177 29.742,54.289 2.518,26.373-5.019,50.409-21.877,70.978-23.787,28.292-57.357,40.929-92.385,39.447-22.908-1.343-44.614-8.013-63.854-20.474-25.964-17.46-45.064-42.043-55.706-71.749-16.693-46.157-9.21-96.899 17.248-138.242 24.993-39.078 65.096-66.762 110.518-76.863-1.798-.201-2.531.932-3.863,1.997z" fill="#999"></path>
						<path d="m132.292,2.529c-58.677,14.689-107.844,58.351-124.854,118.345-11.074,39.418-7.696,79.843 13.13,116.146 15.837,26.646 37.271,46.634 65.634,58.9 15.646,6.601 31.095,9.539 48.076,9.613 43.686.021 85.319-25.065 100.922-67.013 8.003-22.771 8.813-46.344-3.297-68.327-8.65-14.92-20.165-25.915-35.146-33.047-23.103-10.467-52.407-3.421-66.403,18.682-8.198,13.647-5.808,30.297-.155,44.884 1.397,3.797-.869,7.792-4.599,8.589-9.923,1.927-18.311-4.47-24.834-11.266-8.586-10.061-12.643-22.648-12.969-36.034-.391-18.247 6.343-35.092 18.87-49.471 12.594-14.978 27.648-24.827 45.764-29.479 16.85-4.187 33.899-4.712 51.079-.975 29.564,6.94 54.995,23.734 72.831,48.782 9.316,14.388 16.168,29.109 20.423,45.36 6.979,29.904 5.432,60.07-6.303,89.101-13.268,31.892-34.322,57.454-63.767,76.619-32.042,20.695-68.073,28.204-104.965,27.121-3.596-.402-6.593-.736-10.123-1.737 50.276,6.217 101.761-9.274 139.138-45.151 24.384-22.763 40.846-50.658 46.855-82.754 6.209-33.893 1.563-68.391-16.802-99.566-10.713-18.185-24.958-31.91-41.934-42.907-26.098-16.261-58.326-21.071-87.832-12.229-16.984,5.386-31.905,14.037-43.833,28.481-13.46,17.309-20.595,37.75-16.344,59.461 3.323,13.72 11.84,29.84 27.489,30.979 4.195.468 5.33-4.259 5.064-7.323-.861-8.591-2.389-16.649-.854-24.972 2.469-11.254 7.868-21.573 17.195-29.027 14.657-11.714 33.703-13.836 51.349-8.833 19.977,5.87 34.22,19.596 42.469,38.112 10.845,22.448 11.166,46.755 1.965,69.392-13.2,31.294-39.982,53.789-72.417,61.699-38.03,9.105-77.117.497-108.87-24.892-25.029-20.39-41.466-47.102-48.977-77.671-9.37-41.094-2.824-83.444 19.436-119.794 24.461-39.746 63.964-67.496 108.921-78.863l-1.332,1.065z" fill="#ccc"></path>
					
				
				
					<path d="m159.386,144.177c21.246,2.372 36.545,21.517 34.175,42.764s-21.516,36.547-42.762,34.176-36.548-21.516-34.177-42.762 21.517-36.549 42.764-34.178z" fill="#999" stroke="#ccc" stroke-width="2"></path>
					<path d="m145.404,185.255c6.709.749 11.541,6.796 10.792,13.505s-6.794,11.542-13.504,10.792-11.542-6.794-10.793-13.504 6.796-11.542 13.505-10.793z" fill="#fff" stroke="#ccc" stroke-width="2"></path>
				
			
		
	
	
</svg>
